M48
; DRILL file KiCad 10.0.3 date 2026-06-13T11:52:46
; FORMAT={-:-/ absolute / metric / decimal}
; #@! TF.CreationDate,2026-06-13T11:52:46+05:30
; #@! TF.GenerationSoftware,Kicad,Pcbnew,10.0.3
; #@! TF.FileFunction,Plated,1,2,PTH
FMAT,2
METRIC
; #@! TA.AperFunction,Plated,PTH,ViaDrill
T1C0.300
; #@! TA.AperFunction,Plated,PTH,ComponentDrill
T2C0.800
; #@! TA.AperFunction,Plated,PTH,ComponentDrill
T3C0.850
; #@! TA.AperFunction,Plated,PTH,ComponentDrill
T4C0.900
; #@! TA.AperFunction,Plated,PTH,ComponentDrill
T5C1.000
%
G90
G05
T1
X94.0Y-60.25
X96.75Y-96.75
X102.5Y-72.75
X104.0Y-92.5
X104.75Y-72.75
X105.5Y-75.25
X106.5Y-96.0
X108.25Y-97.75
X113.0Y-73.0
X120.5Y-71.0
X121.5Y-63.25
X121.5Y-71.75
X131.0Y-71.0
T2
X85.575Y-96.625
X90.575Y-96.625
X91.25Y-66.295
X91.25Y-68.795
X100.44Y-59.295
X100.44Y-61.835
X100.44Y-64.375
X100.44Y-66.915
X100.44Y-69.455
X100.44Y-71.995
X100.44Y-74.535
X100.44Y-77.075
X108.06Y-59.295
X108.06Y-61.835
X108.06Y-64.375
X108.06Y-66.915
X108.06Y-69.455
X108.06Y-71.995
X108.06Y-74.535
X108.06Y-77.075
X111.19Y-75.5
X117.69Y-59.295
X117.69Y-61.835
X117.69Y-64.375
X117.69Y-66.915
X118.81Y-75.5
X125.31Y-59.295
X125.31Y-61.835
X125.31Y-64.375
X125.31Y-66.915
X130.25Y-59.44
X130.25Y-67.06
T3
X123.25Y-75.5
X125.79Y-75.5
X128.33Y-75.5
T4
X67.46Y-71.5
X69.46Y-61.5
X70.0Y-71.5
X72.0Y-61.5
X73.5Y-84.5
X76.04Y-84.5
X76.96Y-53.0
X79.5Y-53.0
X92.96Y-104.0
X95.5Y-104.0
X112.46Y-104.5
X115.0Y-104.5
X130.5Y-53.0
X132.0Y-84.5
X133.04Y-53.0
X134.54Y-84.5
X136.96Y-61.5
X138.225Y-71.5
X139.5Y-61.5
X140.765Y-71.5
T5
X114.98Y-52.5
X117.52Y-52.5
M30
