G04 #@! TF.GenerationSoftware,KiCad,Pcbnew,10.0.3*
G04 #@! TF.CreationDate,2026-06-13T11:52:46+05:30*
G04 #@! TF.ProjectId,project,70726f6a-6563-4742-9e6b-696361645f70,rev?*
G04 #@! TF.SameCoordinates,Original*
G04 #@! TF.FileFunction,Legend,Top*
G04 #@! TF.FilePolarity,Positive*
%FSLAX46Y46*%
G04 Gerber Fmt 4.6, Leading zero omitted, Abs format (unit mm)*
G04 Created by KiCad (PCBNEW 10.0.3) date 2026-06-13 11:52:46*
%MOMM*%
%LPD*%
G01*
G04 APERTURE LIST*
G04 Aperture macros list*
%AMRoundRect*
0 Rectangle with rounded corners*
0 $1 Rounding radius*
0 $2 $3 $4 $5 $6 $7 $8 $9 X,Y pos of 4 corners*
0 Add a 4 corners polygon primitive as box body*
4,1,4,$2,$3,$4,$5,$6,$7,$8,$9,$2,$3,0*
0 Add four circle primitives for the rounded corners*
1,1,$1+$1,$2,$3*
1,1,$1+$1,$4,$5*
1,1,$1+$1,$6,$7*
1,1,$1+$1,$8,$9*
0 Add four rect primitives between the rounded corners*
20,1,$1+$1,$2,$3,$4,$5,0*
20,1,$1+$1,$4,$5,$6,$7,0*
20,1,$1+$1,$6,$7,$8,$9,0*
20,1,$1+$1,$8,$9,$2,$3,0*%
G04 Aperture macros list end*
%ADD10C,0.100000*%
%ADD11C,0.150000*%
%ADD12C,0.120000*%
%ADD13C,0.000000*%
%ADD14RoundRect,0.250000X-0.950000X-0.550000X0.950000X-0.550000X0.950000X0.550000X-0.950000X0.550000X0*%
%ADD15O,2.400000X1.600000*%
%ADD16RoundRect,0.412500X-0.412500X-0.412500X0.412500X-0.412500X0.412500X0.412500X-0.412500X0.412500X0*%
%ADD17C,1.650000*%
%ADD18C,1.600000*%
%ADD19R,1.700000X1.700000*%
%ADD20C,1.700000*%
%ADD21R,1.800000X1.800000*%
%ADD22C,1.800000*%
%ADD23RoundRect,0.250000X-0.550000X0.550000X-0.550000X-0.550000X0.550000X-0.550000X0.550000X0.550000X0*%
G04 APERTURE END LIST*
D10*
X104000000Y-85000000D02*
X104000000Y-91000000D01*
D11*
X103488095Y-56419819D02*
X103488095Y-57229342D01*
X103488095Y-57229342D02*
X103535714Y-57324580D01*
X103535714Y-57324580D02*
X103583333Y-57372200D01*
X103583333Y-57372200D02*
X103678571Y-57419819D01*
X103678571Y-57419819D02*
X103869047Y-57419819D01*
X103869047Y-57419819D02*
X103964285Y-57372200D01*
X103964285Y-57372200D02*
X104011904Y-57324580D01*
X104011904Y-57324580D02*
X104059523Y-57229342D01*
X104059523Y-57229342D02*
X104059523Y-56419819D01*
X105059523Y-57419819D02*
X104488095Y-57419819D01*
X104773809Y-57419819D02*
X104773809Y-56419819D01*
X104773809Y-56419819D02*
X104678571Y-56562676D01*
X104678571Y-56562676D02*
X104583333Y-56657914D01*
X104583333Y-56657914D02*
X104488095Y-56705533D01*
X120738095Y-56419819D02*
X120738095Y-57229342D01*
X120738095Y-57229342D02*
X120785714Y-57324580D01*
X120785714Y-57324580D02*
X120833333Y-57372200D01*
X120833333Y-57372200D02*
X120928571Y-57419819D01*
X120928571Y-57419819D02*
X121119047Y-57419819D01*
X121119047Y-57419819D02*
X121214285Y-57372200D01*
X121214285Y-57372200D02*
X121261904Y-57324580D01*
X121261904Y-57324580D02*
X121309523Y-57229342D01*
X121309523Y-57229342D02*
X121309523Y-56419819D01*
X121738095Y-56515057D02*
X121785714Y-56467438D01*
X121785714Y-56467438D02*
X121880952Y-56419819D01*
X121880952Y-56419819D02*
X122119047Y-56419819D01*
X122119047Y-56419819D02*
X122214285Y-56467438D01*
X122214285Y-56467438D02*
X122261904Y-56515057D01*
X122261904Y-56515057D02*
X122309523Y-56610295D01*
X122309523Y-56610295D02*
X122309523Y-56705533D01*
X122309523Y-56705533D02*
X122261904Y-56848390D01*
X122261904Y-56848390D02*
X121690476Y-57419819D01*
X121690476Y-57419819D02*
X122309523Y-57419819D01*
X125194761Y-72454819D02*
X124861428Y-71978628D01*
X124623333Y-72454819D02*
X124623333Y-71454819D01*
X124623333Y-71454819D02*
X125004285Y-71454819D01*
X125004285Y-71454819D02*
X125099523Y-71502438D01*
X125099523Y-71502438D02*
X125147142Y-71550057D01*
X125147142Y-71550057D02*
X125194761Y-71645295D01*
X125194761Y-71645295D02*
X125194761Y-71788152D01*
X125194761Y-71788152D02*
X125147142Y-71883390D01*
X125147142Y-71883390D02*
X125099523Y-71931009D01*
X125099523Y-71931009D02*
X125004285Y-71978628D01*
X125004285Y-71978628D02*
X124623333Y-71978628D01*
X125480476Y-71454819D02*
X125813809Y-72454819D01*
X125813809Y-72454819D02*
X126147142Y-71454819D01*
X127004285Y-72454819D02*
X126432857Y-72454819D01*
X126718571Y-72454819D02*
X126718571Y-71454819D01*
X126718571Y-71454819D02*
X126623333Y-71597676D01*
X126623333Y-71597676D02*
X126528095Y-71692914D01*
X126528095Y-71692914D02*
X126432857Y-71740533D01*
X130629819Y-69641666D02*
X130153628Y-69974999D01*
X130629819Y-70213094D02*
X129629819Y-70213094D01*
X129629819Y-70213094D02*
X129629819Y-69832142D01*
X129629819Y-69832142D02*
X129677438Y-69736904D01*
X129677438Y-69736904D02*
X129725057Y-69689285D01*
X129725057Y-69689285D02*
X129820295Y-69641666D01*
X129820295Y-69641666D02*
X129963152Y-69641666D01*
X129963152Y-69641666D02*
X130058390Y-69689285D01*
X130058390Y-69689285D02*
X130106009Y-69736904D01*
X130106009Y-69736904D02*
X130153628Y-69832142D01*
X130153628Y-69832142D02*
X130153628Y-70213094D01*
X129725057Y-69260713D02*
X129677438Y-69213094D01*
X129677438Y-69213094D02*
X129629819Y-69117856D01*
X129629819Y-69117856D02*
X129629819Y-68879761D01*
X129629819Y-68879761D02*
X129677438Y-68784523D01*
X129677438Y-68784523D02*
X129725057Y-68736904D01*
X129725057Y-68736904D02*
X129820295Y-68689285D01*
X129820295Y-68689285D02*
X129915533Y-68689285D01*
X129915533Y-68689285D02*
X130058390Y-68736904D01*
X130058390Y-68736904D02*
X130629819Y-69308332D01*
X130629819Y-69308332D02*
X130629819Y-68689285D01*
X114833333Y-73584819D02*
X114500000Y-73108628D01*
X114261905Y-73584819D02*
X114261905Y-72584819D01*
X114261905Y-72584819D02*
X114642857Y-72584819D01*
X114642857Y-72584819D02*
X114738095Y-72632438D01*
X114738095Y-72632438D02*
X114785714Y-72680057D01*
X114785714Y-72680057D02*
X114833333Y-72775295D01*
X114833333Y-72775295D02*
X114833333Y-72918152D01*
X114833333Y-72918152D02*
X114785714Y-73013390D01*
X114785714Y-73013390D02*
X114738095Y-73061009D01*
X114738095Y-73061009D02*
X114642857Y-73108628D01*
X114642857Y-73108628D02*
X114261905Y-73108628D01*
X115785714Y-73584819D02*
X115214286Y-73584819D01*
X115500000Y-73584819D02*
X115500000Y-72584819D01*
X115500000Y-72584819D02*
X115404762Y-72727676D01*
X115404762Y-72727676D02*
X115309524Y-72822914D01*
X115309524Y-72822914D02*
X115214286Y-72870533D01*
X119744819Y-52833333D02*
X120459104Y-52833333D01*
X120459104Y-52833333D02*
X120601961Y-52880952D01*
X120601961Y-52880952D02*
X120697200Y-52976190D01*
X120697200Y-52976190D02*
X120744819Y-53119047D01*
X120744819Y-53119047D02*
X120744819Y-53214285D01*
X120744819Y-51833333D02*
X120744819Y-52404761D01*
X120744819Y-52119047D02*
X119744819Y-52119047D01*
X119744819Y-52119047D02*
X119887676Y-52214285D01*
X119887676Y-52214285D02*
X119982914Y-52309523D01*
X119982914Y-52309523D02*
X120030533Y-52404761D01*
X129535714Y-49494819D02*
X129535714Y-48494819D01*
X129535714Y-48494819D02*
X129773809Y-48494819D01*
X129773809Y-48494819D02*
X129916666Y-48542438D01*
X129916666Y-48542438D02*
X130011904Y-48637676D01*
X130011904Y-48637676D02*
X130059523Y-48732914D01*
X130059523Y-48732914D02*
X130107142Y-48923390D01*
X130107142Y-48923390D02*
X130107142Y-49066247D01*
X130107142Y-49066247D02*
X130059523Y-49256723D01*
X130059523Y-49256723D02*
X130011904Y-49351961D01*
X130011904Y-49351961D02*
X129916666Y-49447200D01*
X129916666Y-49447200D02*
X129773809Y-49494819D01*
X129773809Y-49494819D02*
X129535714Y-49494819D01*
X131059523Y-49494819D02*
X130488095Y-49494819D01*
X130773809Y-49494819D02*
X130773809Y-48494819D01*
X130773809Y-48494819D02*
X130678571Y-48637676D01*
X130678571Y-48637676D02*
X130583333Y-48732914D01*
X130583333Y-48732914D02*
X130488095Y-48780533D01*
X131678571Y-48494819D02*
X131773809Y-48494819D01*
X131773809Y-48494819D02*
X131869047Y-48542438D01*
X131869047Y-48542438D02*
X131916666Y-48590057D01*
X131916666Y-48590057D02*
X131964285Y-48685295D01*
X131964285Y-48685295D02*
X132011904Y-48875771D01*
X132011904Y-48875771D02*
X132011904Y-49113866D01*
X132011904Y-49113866D02*
X131964285Y-49304342D01*
X131964285Y-49304342D02*
X131916666Y-49399580D01*
X131916666Y-49399580D02*
X131869047Y-49447200D01*
X131869047Y-49447200D02*
X131773809Y-49494819D01*
X131773809Y-49494819D02*
X131678571Y-49494819D01*
X131678571Y-49494819D02*
X131583333Y-49447200D01*
X131583333Y-49447200D02*
X131535714Y-49399580D01*
X131535714Y-49399580D02*
X131488095Y-49304342D01*
X131488095Y-49304342D02*
X131440476Y-49113866D01*
X131440476Y-49113866D02*
X131440476Y-48875771D01*
X131440476Y-48875771D02*
X131488095Y-48685295D01*
X131488095Y-48685295D02*
X131535714Y-48590057D01*
X131535714Y-48590057D02*
X131583333Y-48542438D01*
X131583333Y-48542438D02*
X131678571Y-48494819D01*
X137491905Y-57994819D02*
X137491905Y-56994819D01*
X137491905Y-56994819D02*
X137730000Y-56994819D01*
X137730000Y-56994819D02*
X137872857Y-57042438D01*
X137872857Y-57042438D02*
X137968095Y-57137676D01*
X137968095Y-57137676D02*
X138015714Y-57232914D01*
X138015714Y-57232914D02*
X138063333Y-57423390D01*
X138063333Y-57423390D02*
X138063333Y-57566247D01*
X138063333Y-57566247D02*
X138015714Y-57756723D01*
X138015714Y-57756723D02*
X137968095Y-57851961D01*
X137968095Y-57851961D02*
X137872857Y-57947200D01*
X137872857Y-57947200D02*
X137730000Y-57994819D01*
X137730000Y-57994819D02*
X137491905Y-57994819D01*
X138539524Y-57994819D02*
X138730000Y-57994819D01*
X138730000Y-57994819D02*
X138825238Y-57947200D01*
X138825238Y-57947200D02*
X138872857Y-57899580D01*
X138872857Y-57899580D02*
X138968095Y-57756723D01*
X138968095Y-57756723D02*
X139015714Y-57566247D01*
X139015714Y-57566247D02*
X139015714Y-57185295D01*
X139015714Y-57185295D02*
X138968095Y-57090057D01*
X138968095Y-57090057D02*
X138920476Y-57042438D01*
X138920476Y-57042438D02*
X138825238Y-56994819D01*
X138825238Y-56994819D02*
X138634762Y-56994819D01*
X138634762Y-56994819D02*
X138539524Y-57042438D01*
X138539524Y-57042438D02*
X138491905Y-57090057D01*
X138491905Y-57090057D02*
X138444286Y-57185295D01*
X138444286Y-57185295D02*
X138444286Y-57423390D01*
X138444286Y-57423390D02*
X138491905Y-57518628D01*
X138491905Y-57518628D02*
X138539524Y-57566247D01*
X138539524Y-57566247D02*
X138634762Y-57613866D01*
X138634762Y-57613866D02*
X138825238Y-57613866D01*
X138825238Y-57613866D02*
X138920476Y-57566247D01*
X138920476Y-57566247D02*
X138968095Y-57518628D01*
X138968095Y-57518628D02*
X139015714Y-57423390D01*
X138756905Y-67994819D02*
X138756905Y-66994819D01*
X138756905Y-66994819D02*
X138995000Y-66994819D01*
X138995000Y-66994819D02*
X139137857Y-67042438D01*
X139137857Y-67042438D02*
X139233095Y-67137676D01*
X139233095Y-67137676D02*
X139280714Y-67232914D01*
X139280714Y-67232914D02*
X139328333Y-67423390D01*
X139328333Y-67423390D02*
X139328333Y-67566247D01*
X139328333Y-67566247D02*
X139280714Y-67756723D01*
X139280714Y-67756723D02*
X139233095Y-67851961D01*
X139233095Y-67851961D02*
X139137857Y-67947200D01*
X139137857Y-67947200D02*
X138995000Y-67994819D01*
X138995000Y-67994819D02*
X138756905Y-67994819D01*
X139899762Y-67423390D02*
X139804524Y-67375771D01*
X139804524Y-67375771D02*
X139756905Y-67328152D01*
X139756905Y-67328152D02*
X139709286Y-67232914D01*
X139709286Y-67232914D02*
X139709286Y-67185295D01*
X139709286Y-67185295D02*
X139756905Y-67090057D01*
X139756905Y-67090057D02*
X139804524Y-67042438D01*
X139804524Y-67042438D02*
X139899762Y-66994819D01*
X139899762Y-66994819D02*
X140090238Y-66994819D01*
X140090238Y-66994819D02*
X140185476Y-67042438D01*
X140185476Y-67042438D02*
X140233095Y-67090057D01*
X140233095Y-67090057D02*
X140280714Y-67185295D01*
X140280714Y-67185295D02*
X140280714Y-67232914D01*
X140280714Y-67232914D02*
X140233095Y-67328152D01*
X140233095Y-67328152D02*
X140185476Y-67375771D01*
X140185476Y-67375771D02*
X140090238Y-67423390D01*
X140090238Y-67423390D02*
X139899762Y-67423390D01*
X139899762Y-67423390D02*
X139804524Y-67471009D01*
X139804524Y-67471009D02*
X139756905Y-67518628D01*
X139756905Y-67518628D02*
X139709286Y-67613866D01*
X139709286Y-67613866D02*
X139709286Y-67804342D01*
X139709286Y-67804342D02*
X139756905Y-67899580D01*
X139756905Y-67899580D02*
X139804524Y-67947200D01*
X139804524Y-67947200D02*
X139899762Y-67994819D01*
X139899762Y-67994819D02*
X140090238Y-67994819D01*
X140090238Y-67994819D02*
X140185476Y-67947200D01*
X140185476Y-67947200D02*
X140233095Y-67899580D01*
X140233095Y-67899580D02*
X140280714Y-67804342D01*
X140280714Y-67804342D02*
X140280714Y-67613866D01*
X140280714Y-67613866D02*
X140233095Y-67518628D01*
X140233095Y-67518628D02*
X140185476Y-67471009D01*
X140185476Y-67471009D02*
X140090238Y-67423390D01*
X132531905Y-80994819D02*
X132531905Y-79994819D01*
X132531905Y-79994819D02*
X132770000Y-79994819D01*
X132770000Y-79994819D02*
X132912857Y-80042438D01*
X132912857Y-80042438D02*
X133008095Y-80137676D01*
X133008095Y-80137676D02*
X133055714Y-80232914D01*
X133055714Y-80232914D02*
X133103333Y-80423390D01*
X133103333Y-80423390D02*
X133103333Y-80566247D01*
X133103333Y-80566247D02*
X133055714Y-80756723D01*
X133055714Y-80756723D02*
X133008095Y-80851961D01*
X133008095Y-80851961D02*
X132912857Y-80947200D01*
X132912857Y-80947200D02*
X132770000Y-80994819D01*
X132770000Y-80994819D02*
X132531905Y-80994819D01*
X133436667Y-79994819D02*
X134103333Y-79994819D01*
X134103333Y-79994819D02*
X133674762Y-80994819D01*
X112991905Y-100994819D02*
X112991905Y-99994819D01*
X112991905Y-99994819D02*
X113230000Y-99994819D01*
X113230000Y-99994819D02*
X113372857Y-100042438D01*
X113372857Y-100042438D02*
X113468095Y-100137676D01*
X113468095Y-100137676D02*
X113515714Y-100232914D01*
X113515714Y-100232914D02*
X113563333Y-100423390D01*
X113563333Y-100423390D02*
X113563333Y-100566247D01*
X113563333Y-100566247D02*
X113515714Y-100756723D01*
X113515714Y-100756723D02*
X113468095Y-100851961D01*
X113468095Y-100851961D02*
X113372857Y-100947200D01*
X113372857Y-100947200D02*
X113230000Y-100994819D01*
X113230000Y-100994819D02*
X112991905Y-100994819D01*
X114420476Y-99994819D02*
X114230000Y-99994819D01*
X114230000Y-99994819D02*
X114134762Y-100042438D01*
X114134762Y-100042438D02*
X114087143Y-100090057D01*
X114087143Y-100090057D02*
X113991905Y-100232914D01*
X113991905Y-100232914D02*
X113944286Y-100423390D01*
X113944286Y-100423390D02*
X113944286Y-100804342D01*
X113944286Y-100804342D02*
X113991905Y-100899580D01*
X113991905Y-100899580D02*
X114039524Y-100947200D01*
X114039524Y-100947200D02*
X114134762Y-100994819D01*
X114134762Y-100994819D02*
X114325238Y-100994819D01*
X114325238Y-100994819D02*
X114420476Y-100947200D01*
X114420476Y-100947200D02*
X114468095Y-100899580D01*
X114468095Y-100899580D02*
X114515714Y-100804342D01*
X114515714Y-100804342D02*
X114515714Y-100566247D01*
X114515714Y-100566247D02*
X114468095Y-100471009D01*
X114468095Y-100471009D02*
X114420476Y-100423390D01*
X114420476Y-100423390D02*
X114325238Y-100375771D01*
X114325238Y-100375771D02*
X114134762Y-100375771D01*
X114134762Y-100375771D02*
X114039524Y-100423390D01*
X114039524Y-100423390D02*
X113991905Y-100471009D01*
X113991905Y-100471009D02*
X113944286Y-100566247D01*
X93491905Y-100494819D02*
X93491905Y-99494819D01*
X93491905Y-99494819D02*
X93730000Y-99494819D01*
X93730000Y-99494819D02*
X93872857Y-99542438D01*
X93872857Y-99542438D02*
X93968095Y-99637676D01*
X93968095Y-99637676D02*
X94015714Y-99732914D01*
X94015714Y-99732914D02*
X94063333Y-99923390D01*
X94063333Y-99923390D02*
X94063333Y-100066247D01*
X94063333Y-100066247D02*
X94015714Y-100256723D01*
X94015714Y-100256723D02*
X93968095Y-100351961D01*
X93968095Y-100351961D02*
X93872857Y-100447200D01*
X93872857Y-100447200D02*
X93730000Y-100494819D01*
X93730000Y-100494819D02*
X93491905Y-100494819D01*
X94968095Y-99494819D02*
X94491905Y-99494819D01*
X94491905Y-99494819D02*
X94444286Y-99971009D01*
X94444286Y-99971009D02*
X94491905Y-99923390D01*
X94491905Y-99923390D02*
X94587143Y-99875771D01*
X94587143Y-99875771D02*
X94825238Y-99875771D01*
X94825238Y-99875771D02*
X94920476Y-99923390D01*
X94920476Y-99923390D02*
X94968095Y-99971009D01*
X94968095Y-99971009D02*
X95015714Y-100066247D01*
X95015714Y-100066247D02*
X95015714Y-100304342D01*
X95015714Y-100304342D02*
X94968095Y-100399580D01*
X94968095Y-100399580D02*
X94920476Y-100447200D01*
X94920476Y-100447200D02*
X94825238Y-100494819D01*
X94825238Y-100494819D02*
X94587143Y-100494819D01*
X94587143Y-100494819D02*
X94491905Y-100447200D01*
X94491905Y-100447200D02*
X94444286Y-100399580D01*
X74031905Y-80994819D02*
X74031905Y-79994819D01*
X74031905Y-79994819D02*
X74270000Y-79994819D01*
X74270000Y-79994819D02*
X74412857Y-80042438D01*
X74412857Y-80042438D02*
X74508095Y-80137676D01*
X74508095Y-80137676D02*
X74555714Y-80232914D01*
X74555714Y-80232914D02*
X74603333Y-80423390D01*
X74603333Y-80423390D02*
X74603333Y-80566247D01*
X74603333Y-80566247D02*
X74555714Y-80756723D01*
X74555714Y-80756723D02*
X74508095Y-80851961D01*
X74508095Y-80851961D02*
X74412857Y-80947200D01*
X74412857Y-80947200D02*
X74270000Y-80994819D01*
X74270000Y-80994819D02*
X74031905Y-80994819D01*
X75460476Y-80328152D02*
X75460476Y-80994819D01*
X75222381Y-79947200D02*
X74984286Y-80661485D01*
X74984286Y-80661485D02*
X75603333Y-80661485D01*
X67991905Y-67994819D02*
X67991905Y-66994819D01*
X67991905Y-66994819D02*
X68230000Y-66994819D01*
X68230000Y-66994819D02*
X68372857Y-67042438D01*
X68372857Y-67042438D02*
X68468095Y-67137676D01*
X68468095Y-67137676D02*
X68515714Y-67232914D01*
X68515714Y-67232914D02*
X68563333Y-67423390D01*
X68563333Y-67423390D02*
X68563333Y-67566247D01*
X68563333Y-67566247D02*
X68515714Y-67756723D01*
X68515714Y-67756723D02*
X68468095Y-67851961D01*
X68468095Y-67851961D02*
X68372857Y-67947200D01*
X68372857Y-67947200D02*
X68230000Y-67994819D01*
X68230000Y-67994819D02*
X67991905Y-67994819D01*
X68896667Y-66994819D02*
X69515714Y-66994819D01*
X69515714Y-66994819D02*
X69182381Y-67375771D01*
X69182381Y-67375771D02*
X69325238Y-67375771D01*
X69325238Y-67375771D02*
X69420476Y-67423390D01*
X69420476Y-67423390D02*
X69468095Y-67471009D01*
X69468095Y-67471009D02*
X69515714Y-67566247D01*
X69515714Y-67566247D02*
X69515714Y-67804342D01*
X69515714Y-67804342D02*
X69468095Y-67899580D01*
X69468095Y-67899580D02*
X69420476Y-67947200D01*
X69420476Y-67947200D02*
X69325238Y-67994819D01*
X69325238Y-67994819D02*
X69039524Y-67994819D01*
X69039524Y-67994819D02*
X68944286Y-67947200D01*
X68944286Y-67947200D02*
X68896667Y-67899580D01*
X69991905Y-57994819D02*
X69991905Y-56994819D01*
X69991905Y-56994819D02*
X70230000Y-56994819D01*
X70230000Y-56994819D02*
X70372857Y-57042438D01*
X70372857Y-57042438D02*
X70468095Y-57137676D01*
X70468095Y-57137676D02*
X70515714Y-57232914D01*
X70515714Y-57232914D02*
X70563333Y-57423390D01*
X70563333Y-57423390D02*
X70563333Y-57566247D01*
X70563333Y-57566247D02*
X70515714Y-57756723D01*
X70515714Y-57756723D02*
X70468095Y-57851961D01*
X70468095Y-57851961D02*
X70372857Y-57947200D01*
X70372857Y-57947200D02*
X70230000Y-57994819D01*
X70230000Y-57994819D02*
X69991905Y-57994819D01*
X70944286Y-57090057D02*
X70991905Y-57042438D01*
X70991905Y-57042438D02*
X71087143Y-56994819D01*
X71087143Y-56994819D02*
X71325238Y-56994819D01*
X71325238Y-56994819D02*
X71420476Y-57042438D01*
X71420476Y-57042438D02*
X71468095Y-57090057D01*
X71468095Y-57090057D02*
X71515714Y-57185295D01*
X71515714Y-57185295D02*
X71515714Y-57280533D01*
X71515714Y-57280533D02*
X71468095Y-57423390D01*
X71468095Y-57423390D02*
X70896667Y-57994819D01*
X70896667Y-57994819D02*
X71515714Y-57994819D01*
X77491905Y-49494819D02*
X77491905Y-48494819D01*
X77491905Y-48494819D02*
X77730000Y-48494819D01*
X77730000Y-48494819D02*
X77872857Y-48542438D01*
X77872857Y-48542438D02*
X77968095Y-48637676D01*
X77968095Y-48637676D02*
X78015714Y-48732914D01*
X78015714Y-48732914D02*
X78063333Y-48923390D01*
X78063333Y-48923390D02*
X78063333Y-49066247D01*
X78063333Y-49066247D02*
X78015714Y-49256723D01*
X78015714Y-49256723D02*
X77968095Y-49351961D01*
X77968095Y-49351961D02*
X77872857Y-49447200D01*
X77872857Y-49447200D02*
X77730000Y-49494819D01*
X77730000Y-49494819D02*
X77491905Y-49494819D01*
X79015714Y-49494819D02*
X78444286Y-49494819D01*
X78730000Y-49494819D02*
X78730000Y-48494819D01*
X78730000Y-48494819D02*
X78634762Y-48637676D01*
X78634762Y-48637676D02*
X78539524Y-48732914D01*
X78539524Y-48732914D02*
X78444286Y-48780533D01*
X87908333Y-94484580D02*
X87860714Y-94532200D01*
X87860714Y-94532200D02*
X87717857Y-94579819D01*
X87717857Y-94579819D02*
X87622619Y-94579819D01*
X87622619Y-94579819D02*
X87479762Y-94532200D01*
X87479762Y-94532200D02*
X87384524Y-94436961D01*
X87384524Y-94436961D02*
X87336905Y-94341723D01*
X87336905Y-94341723D02*
X87289286Y-94151247D01*
X87289286Y-94151247D02*
X87289286Y-94008390D01*
X87289286Y-94008390D02*
X87336905Y-93817914D01*
X87336905Y-93817914D02*
X87384524Y-93722676D01*
X87384524Y-93722676D02*
X87479762Y-93627438D01*
X87479762Y-93627438D02*
X87622619Y-93579819D01*
X87622619Y-93579819D02*
X87717857Y-93579819D01*
X87717857Y-93579819D02*
X87860714Y-93627438D01*
X87860714Y-93627438D02*
X87908333Y-93675057D01*
X88289286Y-93675057D02*
X88336905Y-93627438D01*
X88336905Y-93627438D02*
X88432143Y-93579819D01*
X88432143Y-93579819D02*
X88670238Y-93579819D01*
X88670238Y-93579819D02*
X88765476Y-93627438D01*
X88765476Y-93627438D02*
X88813095Y-93675057D01*
X88813095Y-93675057D02*
X88860714Y-93770295D01*
X88860714Y-93770295D02*
X88860714Y-93865533D01*
X88860714Y-93865533D02*
X88813095Y-94008390D01*
X88813095Y-94008390D02*
X88241667Y-94579819D01*
X88241667Y-94579819D02*
X88860714Y-94579819D01*
X95359580Y-67711554D02*
X95407200Y-67759173D01*
X95407200Y-67759173D02*
X95454819Y-67902030D01*
X95454819Y-67902030D02*
X95454819Y-67997268D01*
X95454819Y-67997268D02*
X95407200Y-68140125D01*
X95407200Y-68140125D02*
X95311961Y-68235363D01*
X95311961Y-68235363D02*
X95216723Y-68282982D01*
X95216723Y-68282982D02*
X95026247Y-68330601D01*
X95026247Y-68330601D02*
X94883390Y-68330601D01*
X94883390Y-68330601D02*
X94692914Y-68282982D01*
X94692914Y-68282982D02*
X94597676Y-68235363D01*
X94597676Y-68235363D02*
X94502438Y-68140125D01*
X94502438Y-68140125D02*
X94454819Y-67997268D01*
X94454819Y-67997268D02*
X94454819Y-67902030D01*
X94454819Y-67902030D02*
X94502438Y-67759173D01*
X94502438Y-67759173D02*
X94550057Y-67711554D01*
X95454819Y-66759173D02*
X95454819Y-67330601D01*
X95454819Y-67044887D02*
X94454819Y-67044887D01*
X94454819Y-67044887D02*
X94597676Y-67140125D01*
X94597676Y-67140125D02*
X94692914Y-67235363D01*
X94692914Y-67235363D02*
X94740533Y-67330601D01*
G04 #@! TO.C,U1*
D12*
X102000000Y-57965000D02*
X102000000Y-78405000D01*
X102000000Y-78405000D02*
X106500000Y-78405000D01*
X103250000Y-57965000D02*
X102000000Y-57965000D01*
X106500000Y-57965000D02*
X105250000Y-57965000D01*
X106500000Y-78405000D02*
X106500000Y-57965000D01*
X105250000Y-57965000D02*
G75*
G02*
X103250000Y-57965000I-1000000J0D01*
G01*
D13*
G04 #@! TO.C,G\u002A\u002A\u002A*
G36*
X92320512Y-85659956D02*
G01*
X92368764Y-85664748D01*
X92722919Y-85711956D01*
X93073968Y-85778969D01*
X93430519Y-85868449D01*
X93801178Y-85983059D01*
X94194552Y-86125459D01*
X94619247Y-86298314D01*
X95083870Y-86504285D01*
X95085936Y-86505232D01*
X95596530Y-86716304D01*
X96086686Y-86871852D01*
X96350712Y-86934473D01*
X96909323Y-87020136D01*
X97484536Y-87049923D01*
X98072028Y-87024544D01*
X98667475Y-86944711D01*
X99266555Y-86811135D01*
X99864946Y-86624528D01*
X100458324Y-86385601D01*
X100858538Y-86192688D01*
X100994452Y-86123978D01*
X101110302Y-86067924D01*
X101196111Y-86029163D01*
X101241905Y-86012328D01*
X101246582Y-86012417D01*
X101237471Y-86041954D01*
X101204302Y-86116270D01*
X101151193Y-86226796D01*
X101082262Y-86364962D01*
X101001825Y-86521816D01*
X100921438Y-86679338D01*
X100853236Y-86818210D01*
X100801258Y-86929766D01*
X100769542Y-87005343D01*
X100762099Y-87036248D01*
X100796550Y-87041881D01*
X100881671Y-87046796D01*
X101007802Y-87050695D01*
X101165281Y-87053286D01*
X101344449Y-87054273D01*
X101352933Y-87054275D01*
X101925740Y-87054275D01*
X101868273Y-87118710D01*
X101808167Y-87177949D01*
X101708418Y-87267031D01*
X101577346Y-87379193D01*
X101423266Y-87507673D01*
X101254496Y-87645708D01*
X101079352Y-87786536D01*
X100906152Y-87923392D01*
X100743213Y-88049516D01*
X100598852Y-88158143D01*
X100516367Y-88217978D01*
X100042286Y-88542217D01*
X99597246Y-88820146D01*
X99175464Y-89054724D01*
X98771158Y-89248911D01*
X98378546Y-89405667D01*
X97991848Y-89527951D01*
X97919358Y-89547327D01*
X97804717Y-89576328D01*
X97707353Y-89597921D01*
X97615247Y-89613142D01*
X97516382Y-89623030D01*
X97398739Y-89628621D01*
X97250299Y-89630954D01*
X97059045Y-89631066D01*
X96954037Y-89630660D01*
X96593651Y-89624266D01*
X96250502Y-89607396D01*
X95915987Y-89578530D01*
X95581503Y-89536148D01*
X95238446Y-89478730D01*
X94878214Y-89404758D01*
X94492203Y-89312711D01*
X94071811Y-89201071D01*
X93608435Y-89068316D01*
X93373305Y-88998181D01*
X92900723Y-88858092D01*
X92478786Y-88738312D01*
X92170205Y-88655858D01*
X94854559Y-88655858D01*
X94857555Y-88713920D01*
X94894071Y-88740373D01*
X94926213Y-88743586D01*
X94989793Y-88719322D01*
X95069061Y-88655868D01*
X95151242Y-88567233D01*
X95223563Y-88467424D01*
X95273250Y-88370451D01*
X95277539Y-88358303D01*
X95312771Y-88274288D01*
X95352428Y-88236693D01*
X95386840Y-88230759D01*
X95417391Y-88235518D01*
X95440810Y-88256642D01*
X95461184Y-88304399D01*
X95482601Y-88389061D01*
X95509152Y-88520896D01*
X95515421Y-88553741D01*
X95551431Y-88723363D01*
X95585021Y-88838079D01*
X95617880Y-88903174D01*
X95631340Y-88916608D01*
X95707768Y-88947526D01*
X95774621Y-88919733D01*
X95821452Y-88857333D01*
X95844455Y-88807869D01*
X95851474Y-88757010D01*
X95842032Y-88686246D01*
X95815652Y-88577066D01*
X95814063Y-88570966D01*
X95777506Y-88446296D01*
X95735921Y-88327023D01*
X95730950Y-88315252D01*
X96716302Y-88315252D01*
X96727704Y-88486108D01*
X96729518Y-88497990D01*
X96764807Y-88664866D01*
X96813363Y-88787773D01*
X96882295Y-88882757D01*
X96913463Y-88913202D01*
X96990718Y-88973622D01*
X97064934Y-89001764D01*
X97162163Y-89005460D01*
X97209455Y-89002177D01*
X97319920Y-88979637D01*
X97397954Y-88927237D01*
X97413177Y-88910670D01*
X97458141Y-88845179D01*
X97460255Y-88793199D01*
X97451330Y-88772910D01*
X97417327Y-88734012D01*
X97365104Y-88737029D01*
X97343685Y-88744542D01*
X97258058Y-88767336D01*
X97198662Y-88773752D01*
X97113795Y-88745581D01*
X97035614Y-88669045D01*
X96970884Y-88556114D01*
X96926369Y-88418757D01*
X96908835Y-88268941D01*
X96908788Y-88260926D01*
X96923470Y-88103164D01*
X96964505Y-87982704D01*
X97027375Y-87905206D01*
X97107565Y-87876333D01*
X97196927Y-87899765D01*
X97277857Y-87926211D01*
X97326982Y-87910164D01*
X97341055Y-87862275D01*
X97316828Y-87793196D01*
X97273658Y-87740557D01*
X97626936Y-87740557D01*
X97628982Y-87830782D01*
X97639184Y-87957879D01*
X97657649Y-88130078D01*
X97677806Y-88300550D01*
X97700644Y-88493558D01*
X97718381Y-88634697D01*
X97735163Y-88731718D01*
X97755134Y-88792373D01*
X97782441Y-88824413D01*
X97821230Y-88835588D01*
X97875645Y-88833650D01*
X97949832Y-88826349D01*
X97958630Y-88825612D01*
X98095338Y-88808547D01*
X98236366Y-88781651D01*
X98320636Y-88759702D01*
X98427091Y-88716694D01*
X98492577Y-88669108D01*
X98509772Y-88623387D01*
X98498202Y-88603467D01*
X98444609Y-88587403D01*
X98340801Y-88591650D01*
X98193260Y-88615892D01*
X98177764Y-88619106D01*
X98066569Y-88640226D01*
X97991650Y-88642268D01*
X97944842Y-88616690D01*
X97917982Y-88554950D01*
X97902908Y-88448506D01*
X97893609Y-88321773D01*
X97870338Y-88063038D01*
X97838099Y-87856746D01*
X97797408Y-87705610D01*
X97762548Y-87631490D01*
X97727467Y-87585018D01*
X98410948Y-87585018D01*
X98421400Y-87672119D01*
X98448923Y-87795322D01*
X98494788Y-87963284D01*
X98518547Y-88044912D01*
X98580181Y-88221476D01*
X98649259Y-88348407D01*
X98733137Y-88436408D01*
X98824346Y-88489838D01*
X98946275Y-88527171D01*
X99046348Y-88516477D01*
X99104386Y-88485341D01*
X99194543Y-88385561D01*
X99246740Y-88239565D01*
X99260867Y-88048123D01*
X99236812Y-87812002D01*
X99216671Y-87706145D01*
X99171663Y-87536092D01*
X99120227Y-87423464D01*
X99060839Y-87365552D01*
X99019731Y-87355937D01*
X98977383Y-87369102D01*
X98961304Y-87419051D01*
X98960094Y-87454177D01*
X98969069Y-87554807D01*
X98990497Y-87657799D01*
X99007512Y-87739596D01*
X99024242Y-87857787D01*
X99037377Y-87988507D01*
X99038599Y-88004512D01*
X99043708Y-88163465D01*
X99029945Y-88269851D01*
X98994829Y-88329166D01*
X98935882Y-88346906D01*
X98887384Y-88339716D01*
X98836051Y-88316164D01*
X98792345Y-88268320D01*
X98752439Y-88187922D01*
X98712507Y-88066705D01*
X98668722Y-87896405D01*
X98655059Y-87837965D01*
X98620912Y-87709169D01*
X98582962Y-87596461D01*
X98547537Y-87517707D01*
X98535086Y-87499233D01*
X98491970Y-87454381D01*
X98463680Y-87454009D01*
X98436165Y-87484494D01*
X98416294Y-87525362D01*
X98410948Y-87585018D01*
X97727467Y-87585018D01*
X97726539Y-87583788D01*
X97696786Y-87583939D01*
X97668637Y-87608813D01*
X97646872Y-87637803D01*
X97632936Y-87678974D01*
X97626936Y-87740557D01*
X97273658Y-87740557D01*
X97253104Y-87715494D01*
X97155900Y-87661095D01*
X97045292Y-87656177D01*
X96935819Y-87696751D01*
X96842018Y-87778824D01*
X96802971Y-87839052D01*
X96756446Y-87969200D01*
X96726719Y-88135441D01*
X96716302Y-88315252D01*
X95730950Y-88315252D01*
X95703557Y-88250393D01*
X95646414Y-88134278D01*
X95825107Y-87921456D01*
X95927885Y-87787701D01*
X95988185Y-87682985D01*
X96005026Y-87610182D01*
X95977431Y-87572167D01*
X95945782Y-87567101D01*
X95890494Y-87582530D01*
X95811647Y-87631412D01*
X95703888Y-87717644D01*
X95561866Y-87845120D01*
X95555014Y-87851488D01*
X95482900Y-87916907D01*
X95445495Y-87943734D01*
X95434294Y-87935479D01*
X95440043Y-87898930D01*
X95475175Y-87692468D01*
X95482210Y-87514636D01*
X95461899Y-87372581D01*
X95417222Y-87278169D01*
X99382500Y-87278169D01*
X99390630Y-87351739D01*
X99417506Y-87468123D01*
X99462372Y-87627434D01*
X99505928Y-87775582D01*
X99546082Y-87913616D01*
X99578034Y-88024948D01*
X99595503Y-88087469D01*
X99626217Y-88161817D01*
X99673848Y-88196443D01*
X99748478Y-88193041D01*
X99860188Y-88153304D01*
X99895249Y-88137820D01*
X100053332Y-88048482D01*
X100152865Y-87949578D01*
X100195065Y-87839785D01*
X100196799Y-87810329D01*
X100181861Y-87715099D01*
X100143958Y-87620908D01*
X100093171Y-87545906D01*
X100039583Y-87508242D01*
X100028170Y-87506769D01*
X99995995Y-87495229D01*
X99996506Y-87450326D01*
X100003579Y-87423812D01*
X100029179Y-87276088D01*
X100012544Y-87160357D01*
X99956225Y-87082043D01*
X99862774Y-87046569D01*
X99825484Y-87045150D01*
X99739705Y-87061550D01*
X99630716Y-87100358D01*
X99520504Y-87151671D01*
X99431055Y-87205586D01*
X99391849Y-87240461D01*
X99382500Y-87278169D01*
X95417222Y-87278169D01*
X95414991Y-87273454D01*
X95370338Y-87235288D01*
X95309736Y-87218352D01*
X95263056Y-87243837D01*
X95227836Y-87316387D01*
X95201609Y-87440647D01*
X95185079Y-87584466D01*
X95159889Y-87803805D01*
X95124505Y-87985506D01*
X95072612Y-88152141D01*
X94997896Y-88326278D01*
X94950927Y-88421406D01*
X94885532Y-88560312D01*
X94854559Y-88655858D01*
X92170205Y-88655858D01*
X92101796Y-88637579D01*
X91764055Y-88554630D01*
X91459863Y-88488201D01*
X91183522Y-88437028D01*
X90929335Y-88399848D01*
X90691602Y-88375398D01*
X90514658Y-88364384D01*
X90323764Y-88357151D01*
X90182996Y-88357515D01*
X90082259Y-88369352D01*
X90011461Y-88396538D01*
X89960510Y-88442952D01*
X89919311Y-88512469D01*
X89877773Y-88608967D01*
X89877749Y-88609028D01*
X89823376Y-88752784D01*
X89796868Y-88852012D01*
X89797853Y-88915499D01*
X89825960Y-88952037D01*
X89862639Y-88966554D01*
X89980977Y-89024121D01*
X90089048Y-89126171D01*
X90175564Y-89256865D01*
X90229234Y-89400362D01*
X90241211Y-89497743D01*
X90222708Y-89653967D01*
X90170940Y-89800530D01*
X90093732Y-89925868D01*
X89998906Y-90018419D01*
X89894285Y-90066619D01*
X89853430Y-90070902D01*
X89788315Y-90074204D01*
X89759463Y-90082201D01*
X89759382Y-90082691D01*
X89770752Y-90114651D01*
X89799651Y-90182582D01*
X89819052Y-90225980D01*
X89872088Y-90409935D01*
X89869052Y-90594226D01*
X89811862Y-90767711D01*
X89702433Y-90919249D01*
X89699286Y-90922419D01*
X89622942Y-90987290D01*
X89552395Y-91028500D01*
X89521601Y-91036222D01*
X89467693Y-91051527D01*
X89462687Y-91086539D01*
X89491026Y-91113579D01*
X89533103Y-91163466D01*
X89576832Y-91251212D01*
X89613747Y-91355198D01*
X89635387Y-91453803D01*
X89637886Y-91488716D01*
X89611747Y-91685539D01*
X89532968Y-91856709D01*
X89457956Y-91948072D01*
X89378616Y-92018680D01*
X89309662Y-92052604D01*
X89225839Y-92061843D01*
X89218440Y-92061876D01*
X89061719Y-92040207D01*
X88945372Y-91977302D01*
X88873039Y-91876314D01*
X88848360Y-91741476D01*
X88845471Y-91673104D01*
X88838399Y-91640097D01*
X88837245Y-91639548D01*
X88815101Y-91661849D01*
X88768002Y-91720183D01*
X88709121Y-91797938D01*
X88545879Y-91995997D01*
X88374615Y-92162371D01*
X88207090Y-92286062D01*
X88156464Y-92314692D01*
X88082030Y-92350484D01*
X88014162Y-92373183D01*
X87936157Y-92385405D01*
X87831309Y-92389766D01*
X87682913Y-92388881D01*
X87682667Y-92388877D01*
X87537029Y-92385765D01*
X87402893Y-92381259D01*
X87298669Y-92376058D01*
X87255581Y-92372626D01*
X86872524Y-92317438D01*
X86486385Y-92236131D01*
X86110814Y-92132743D01*
X85759460Y-92011312D01*
X85445972Y-91875875D01*
X85278729Y-91787853D01*
X85169803Y-91724210D01*
X85103213Y-91678600D01*
X85068558Y-91639750D01*
X85055437Y-91596387D01*
X85053444Y-91543669D01*
X85056922Y-91470082D01*
X85065566Y-91430544D01*
X85068457Y-91428384D01*
X85099165Y-91444496D01*
X85163228Y-91486216D01*
X85226830Y-91530425D01*
X85496115Y-91693106D01*
X85820540Y-91837777D01*
X86197411Y-91963608D01*
X86624035Y-92069771D01*
X87097717Y-92155437D01*
X87385609Y-92194521D01*
X87530720Y-92212052D01*
X87466060Y-92121246D01*
X87419100Y-92041578D01*
X87367150Y-91933329D01*
X87336032Y-91857618D01*
X87312213Y-91788995D01*
X87294998Y-91720791D01*
X87283383Y-91641744D01*
X87276366Y-91540592D01*
X87272944Y-91406071D01*
X87272450Y-91299716D01*
X87459575Y-91299716D01*
X87485323Y-91566728D01*
X87541343Y-91792694D01*
X87627714Y-91973796D01*
X87729480Y-92093546D01*
X87806613Y-92153221D01*
X87871700Y-92176786D01*
X87951936Y-92173959D01*
X87953807Y-92173710D01*
X88048117Y-92145847D01*
X88153324Y-92093271D01*
X88195803Y-92065129D01*
X88261936Y-92009093D01*
X88343793Y-91929390D01*
X88430387Y-91838154D01*
X88510730Y-91747519D01*
X88573836Y-91669619D01*
X88608715Y-91616586D01*
X88612297Y-91605197D01*
X88586373Y-91588176D01*
X88521065Y-91569967D01*
X88499940Y-91565881D01*
X88387113Y-91543685D01*
X88321493Y-91521798D01*
X88290490Y-91492500D01*
X88281515Y-91448072D01*
X88281234Y-91431781D01*
X88305012Y-91348666D01*
X88309150Y-91342191D01*
X88576876Y-91342191D01*
X88599858Y-91362168D01*
X88666702Y-91381737D01*
X88736950Y-91396445D01*
X88894818Y-91441338D01*
X88997566Y-91504698D01*
X89048414Y-91589625D01*
X89050750Y-91698251D01*
X89043206Y-91780770D01*
X89060207Y-91827033D01*
X89085991Y-91847069D01*
X89187399Y-91878297D01*
X89281944Y-91849709D01*
X89348255Y-91789491D01*
X89424470Y-91660513D01*
X89450230Y-91526033D01*
X89431503Y-91395973D01*
X89374256Y-91280251D01*
X89284455Y-91188790D01*
X89168068Y-91131508D01*
X89031062Y-91118328D01*
X88953013Y-91132371D01*
X88830253Y-91174571D01*
X88713304Y-91228955D01*
X88622345Y-91285338D01*
X88588046Y-91316599D01*
X88576876Y-91342191D01*
X88309150Y-91342191D01*
X88367708Y-91250554D01*
X88456369Y-91153252D01*
X88558037Y-91072572D01*
X88592168Y-91052326D01*
X88657644Y-91006947D01*
X88708989Y-90942082D01*
X88723700Y-90911896D01*
X88981443Y-90911896D01*
X88991541Y-90905394D01*
X89018644Y-90872084D01*
X89054477Y-90808362D01*
X89063176Y-90766502D01*
X89058346Y-90735734D01*
X89044472Y-90763499D01*
X89044017Y-90764726D01*
X89017437Y-90829840D01*
X88999485Y-90870308D01*
X88981443Y-90911896D01*
X88723700Y-90911896D01*
X88758280Y-90840939D01*
X88776348Y-90796243D01*
X88814926Y-90695477D01*
X88842824Y-90617959D01*
X88854347Y-90579557D01*
X88854394Y-90578797D01*
X88827947Y-90562242D01*
X88762309Y-90544280D01*
X88741270Y-90540228D01*
X88628645Y-90518163D01*
X88563139Y-90496304D01*
X88532118Y-90466509D01*
X88522949Y-90420635D01*
X88522565Y-90399261D01*
X88547225Y-90316537D01*
X88818206Y-90316537D01*
X88841188Y-90336515D01*
X88908033Y-90356084D01*
X88978280Y-90370792D01*
X89136148Y-90415685D01*
X89238896Y-90479045D01*
X89289744Y-90563972D01*
X89292080Y-90672597D01*
X89284536Y-90755117D01*
X89301537Y-90801379D01*
X89327321Y-90821416D01*
X89428729Y-90852644D01*
X89523274Y-90824055D01*
X89589585Y-90763838D01*
X89665800Y-90634860D01*
X89691560Y-90500380D01*
X89672833Y-90370319D01*
X89615586Y-90254598D01*
X89525786Y-90163136D01*
X89409398Y-90105855D01*
X89272392Y-90092675D01*
X89194343Y-90106718D01*
X89071583Y-90148918D01*
X88954634Y-90203302D01*
X88863675Y-90259685D01*
X88829376Y-90290945D01*
X88818206Y-90316537D01*
X88547225Y-90316537D01*
X88548168Y-90313373D01*
X88616793Y-90215263D01*
X88716166Y-90116839D01*
X88834012Y-90030009D01*
X88958056Y-89966681D01*
X88974860Y-89960493D01*
X89072245Y-89921077D01*
X89131662Y-89876932D01*
X89143661Y-89857958D01*
X89397386Y-89857958D01*
X89419285Y-89888676D01*
X89427553Y-89889904D01*
X89456935Y-89879612D01*
X89457719Y-89876601D01*
X89436580Y-89850846D01*
X89427553Y-89844655D01*
X89399755Y-89847046D01*
X89397386Y-89857958D01*
X89143661Y-89857958D01*
X89173987Y-89810005D01*
X89190175Y-89774280D01*
X89223644Y-89691924D01*
X89243848Y-89633014D01*
X89246555Y-89619332D01*
X89219674Y-89601044D01*
X89151433Y-89582096D01*
X89106950Y-89574157D01*
X88992647Y-89554391D01*
X88925875Y-89532448D01*
X88894112Y-89500365D01*
X88884834Y-89450177D01*
X88884560Y-89432746D01*
X88908736Y-89351217D01*
X89180201Y-89351217D01*
X89203184Y-89371194D01*
X89270028Y-89390763D01*
X89340276Y-89405471D01*
X89498144Y-89450364D01*
X89600891Y-89513724D01*
X89651740Y-89598651D01*
X89654075Y-89707277D01*
X89646531Y-89789796D01*
X89663533Y-89836059D01*
X89689317Y-89856095D01*
X89790724Y-89887323D01*
X89885269Y-89858735D01*
X89951581Y-89798517D01*
X90027795Y-89669539D01*
X90053556Y-89535060D01*
X90034829Y-89404999D01*
X89977581Y-89289277D01*
X89887781Y-89197816D01*
X89771394Y-89140534D01*
X89634387Y-89127354D01*
X89556338Y-89141397D01*
X89433578Y-89183597D01*
X89316630Y-89237981D01*
X89225671Y-89294364D01*
X89191371Y-89325625D01*
X89180201Y-89351217D01*
X88908736Y-89351217D01*
X88910774Y-89344343D01*
X88981750Y-89244987D01*
X89085986Y-89145511D01*
X89211981Y-89056748D01*
X89348234Y-88989529D01*
X89359688Y-88985241D01*
X89479364Y-88932990D01*
X89544869Y-88876703D01*
X89561854Y-88804484D01*
X89535966Y-88704437D01*
X89515896Y-88656271D01*
X89400636Y-88457000D01*
X89254415Y-88307258D01*
X89080205Y-88209170D01*
X88880977Y-88164862D01*
X88825195Y-88162410D01*
X88654814Y-88184549D01*
X88495191Y-88255521D01*
X88344862Y-88377177D01*
X88202365Y-88551370D01*
X88066237Y-88779950D01*
X87935016Y-89064769D01*
X87807238Y-89407678D01*
X87782234Y-89482580D01*
X87657773Y-89897559D01*
X87563200Y-90290580D01*
X87498591Y-90657824D01*
X87464024Y-90995475D01*
X87459575Y-91299716D01*
X87272450Y-91299716D01*
X87272112Y-91226921D01*
X87272276Y-91141804D01*
X87273914Y-90932950D01*
X87278409Y-90768501D01*
X87287243Y-90632545D01*
X87301896Y-90509169D01*
X87323848Y-90382462D01*
X87354578Y-90236512D01*
X87357859Y-90221733D01*
X87421575Y-89961976D01*
X87499739Y-89684991D01*
X87586874Y-89407755D01*
X87677504Y-89147245D01*
X87766152Y-88920438D01*
X87809370Y-88822055D01*
X87902160Y-88641366D01*
X88009210Y-88465427D01*
X88120729Y-88308422D01*
X88226925Y-88184534D01*
X88287774Y-88129022D01*
X88345889Y-88076740D01*
X88354699Y-88047200D01*
X88340647Y-88038652D01*
X88295727Y-88024185D01*
X88206400Y-87995430D01*
X88085691Y-87956580D01*
X87949405Y-87912722D01*
X87285296Y-87676729D01*
X86639873Y-87403321D01*
X86024870Y-87098004D01*
X85452021Y-86766285D01*
X85302315Y-86670432D01*
X85188441Y-86594803D01*
X85115975Y-86541148D01*
X85075569Y-86498825D01*
X85057872Y-86457193D01*
X85053537Y-86405613D01*
X85053444Y-86387188D01*
X85053444Y-86266903D01*
X85241983Y-86400815D01*
X85583900Y-86626747D01*
X85972519Y-86853844D01*
X86394709Y-87075523D01*
X86837340Y-87285201D01*
X87287279Y-87476293D01*
X87687290Y-87626828D01*
X87928247Y-87708444D01*
X88171164Y-87785021D01*
X88403334Y-87852933D01*
X88612047Y-87908551D01*
X88784596Y-87948247D01*
X88863676Y-87962637D01*
X89122763Y-88026776D01*
X89338198Y-88132415D01*
X89510296Y-88279740D01*
X89597533Y-88395504D01*
X89648186Y-88471605D01*
X89686167Y-88521246D01*
X89699049Y-88532244D01*
X89712969Y-88505121D01*
X89746972Y-88427429D01*
X89798798Y-88304644D01*
X89866189Y-88142240D01*
X89904949Y-88047834D01*
X92743902Y-88047834D01*
X92774286Y-88098837D01*
X92818809Y-88110094D01*
X92860527Y-88088571D01*
X92922611Y-88034933D01*
X92989557Y-87965576D01*
X93045862Y-87896895D01*
X93076022Y-87845286D01*
X93077672Y-87836340D01*
X93105938Y-87818909D01*
X93191117Y-87819009D01*
X93251128Y-87825121D01*
X93345484Y-87837294D01*
X93411199Y-87847158D01*
X93431297Y-87851601D01*
X93426053Y-87880642D01*
X93405928Y-87951874D01*
X93375184Y-88050273D01*
X93373047Y-88056861D01*
X93339586Y-88167869D01*
X93326929Y-88237913D01*
X93333513Y-88282061D01*
X93347403Y-88304048D01*
X93401183Y-88345485D01*
X93461375Y-88337462D01*
X93538641Y-88279490D01*
X93591724Y-88213224D01*
X93638166Y-88115499D01*
X93648171Y-88083047D01*
X94003957Y-88083047D01*
X94036763Y-88278678D01*
X94065171Y-88356386D01*
X94113300Y-88447453D01*
X94171545Y-88512084D01*
X94254780Y-88561067D01*
X94377882Y-88605190D01*
X94429110Y-88620328D01*
X94459149Y-88609816D01*
X94519587Y-88580800D01*
X94523495Y-88578787D01*
X94601766Y-88519467D01*
X94636134Y-88454093D01*
X94626745Y-88395993D01*
X94573740Y-88358492D01*
X94521054Y-88351424D01*
X94424125Y-88325316D01*
X94358367Y-88277380D01*
X94314343Y-88222455D01*
X94291903Y-88157004D01*
X94284559Y-88059079D01*
X94284322Y-88026824D01*
X94301381Y-87855905D01*
X94347192Y-87669055D01*
X94413710Y-87493404D01*
X94476367Y-87379267D01*
X94555790Y-87300000D01*
X94647287Y-87268672D01*
X94736428Y-87288664D01*
X94767406Y-87311071D01*
X94831350Y-87346277D01*
X94877515Y-87350694D01*
X94928372Y-87316886D01*
X94944163Y-87252535D01*
X94929049Y-87172938D01*
X94887192Y-87093392D01*
X94822754Y-87029192D01*
X94784286Y-87008009D01*
X94661817Y-86984967D01*
X94525331Y-87001629D01*
X94401376Y-87053038D01*
X94354532Y-87088224D01*
X94226896Y-87240796D01*
X94124692Y-87431149D01*
X94051250Y-87644698D01*
X94009895Y-87866859D01*
X94003957Y-88083047D01*
X93648171Y-88083047D01*
X93680254Y-87978988D01*
X93720279Y-87796363D01*
X93757810Y-87577724D01*
X93788730Y-87323779D01*
X93797863Y-87101886D01*
X93786038Y-86916695D01*
X93754085Y-86772857D01*
X93702835Y-86675022D01*
X93633118Y-86627842D01*
X93587760Y-86625101D01*
X93557046Y-86629234D01*
X93529306Y-86636817D01*
X93501589Y-86652433D01*
X93470949Y-86680665D01*
X93434436Y-86726095D01*
X93389102Y-86793305D01*
X93332000Y-86886880D01*
X93260180Y-87011400D01*
X93170693Y-87171449D01*
X93060593Y-87371609D01*
X92926930Y-87616464D01*
X92800120Y-87849320D01*
X92752341Y-87962252D01*
X92743902Y-88047834D01*
X89904949Y-88047834D01*
X89946884Y-87945694D01*
X90038625Y-87720479D01*
X90081278Y-87615083D01*
X91228538Y-87615083D01*
X91235598Y-87667213D01*
X91237543Y-87672719D01*
X91283888Y-87736521D01*
X91349899Y-87749464D01*
X91429159Y-87715095D01*
X91515257Y-87636960D01*
X91601775Y-87518604D01*
X91640982Y-87449671D01*
X91751916Y-87238563D01*
X91954758Y-87314889D01*
X92055918Y-87353943D01*
X92132476Y-87385357D01*
X92169104Y-87402819D01*
X92169911Y-87403484D01*
X92169669Y-87436492D01*
X92158498Y-87514168D01*
X92138595Y-87622291D01*
X92128388Y-87672278D01*
X92102869Y-87804098D01*
X92092517Y-87890370D01*
X92096655Y-87943762D01*
X92112229Y-87974200D01*
X92179814Y-88015532D01*
X92261648Y-88002995D01*
X92336945Y-87948574D01*
X92376039Y-87888773D01*
X92424846Y-87782887D01*
X92480016Y-87641835D01*
X92538202Y-87476535D01*
X92596051Y-87297905D01*
X92650216Y-87116863D01*
X92697347Y-86944327D01*
X92734093Y-86791215D01*
X92757106Y-86668445D01*
X92763035Y-86586935D01*
X92760145Y-86569154D01*
X92719375Y-86507991D01*
X92681444Y-86478940D01*
X92610943Y-86466124D01*
X92538076Y-86504459D01*
X92460244Y-86596435D01*
X92374848Y-86744542D01*
X92348500Y-86797925D01*
X92227682Y-87049716D01*
X92108906Y-87007810D01*
X91999146Y-86967051D01*
X91933201Y-86929517D01*
X91899882Y-86879015D01*
X91888002Y-86799349D01*
X91886391Y-86685695D01*
X91874409Y-86513148D01*
X91836801Y-86388363D01*
X91770304Y-86303069D01*
X91722991Y-86271451D01*
X91659691Y-86256714D01*
X91604818Y-86288150D01*
X91555904Y-86369515D01*
X91510484Y-86504567D01*
X91476441Y-86647030D01*
X91437676Y-86813171D01*
X91387740Y-87005440D01*
X91334853Y-87192831D01*
X91310497Y-87273016D01*
X91264007Y-87428830D01*
X91237347Y-87539237D01*
X91228538Y-87615083D01*
X90081278Y-87615083D01*
X90139153Y-87472072D01*
X90242042Y-87216332D01*
X90769952Y-85900488D01*
X90925767Y-85827766D01*
X91143863Y-85748431D01*
X91405653Y-85690483D01*
X91697869Y-85655422D01*
X92007244Y-85644747D01*
X92320512Y-85659956D01*
G37*
G36*
X93569223Y-87035573D02*
G01*
X93583931Y-87100842D01*
X93585460Y-87114607D01*
X93587893Y-87200652D01*
X93582746Y-87302266D01*
X93572060Y-87402329D01*
X93557875Y-87483715D01*
X93542231Y-87529302D01*
X93535537Y-87533630D01*
X93495765Y-87526251D01*
X93419599Y-87511544D01*
X93382710Y-87504325D01*
X93299380Y-87485431D01*
X93244420Y-87468267D01*
X93235047Y-87463036D01*
X93243678Y-87433165D01*
X93279868Y-87369127D01*
X93334238Y-87284459D01*
X93397407Y-87192695D01*
X93459996Y-87107372D01*
X93512625Y-87042024D01*
X93545912Y-87010188D01*
X93549678Y-87009025D01*
X93569223Y-87035573D01*
G37*
G36*
X99992925Y-87675762D02*
G01*
X100046530Y-87718774D01*
X100046690Y-87719072D01*
X100064666Y-87810179D01*
X100031733Y-87897314D01*
X100004890Y-87925727D01*
X99943544Y-87964627D01*
X99865552Y-87999692D01*
X99791271Y-88023589D01*
X99741058Y-88028989D01*
X99732050Y-88023990D01*
X99717989Y-87980624D01*
X99701345Y-87901978D01*
X99695681Y-87868838D01*
X99687035Y-87780443D01*
X99700358Y-87728470D01*
X99730510Y-87698259D01*
X99811610Y-87663970D01*
X99906850Y-87656982D01*
X99992925Y-87675762D01*
G37*
G36*
X99854648Y-87249492D02*
G01*
X99876418Y-87283929D01*
X99877685Y-87287789D01*
X99883043Y-87373493D01*
X99836503Y-87448745D01*
X99760488Y-87506158D01*
X99693279Y-87545390D01*
X99650480Y-87566127D01*
X99646092Y-87567101D01*
X99626493Y-87541827D01*
X99595323Y-87477999D01*
X99580229Y-87441953D01*
X99551494Y-87351075D01*
X99559803Y-87294851D01*
X99612799Y-87262689D01*
X99718127Y-87243997D01*
X99723546Y-87243379D01*
X99809666Y-87237697D01*
X99854648Y-87249492D01*
G37*
G36*
X111420841Y-88309387D02*
G01*
X111510606Y-88309414D01*
X111591025Y-88309466D01*
X111662603Y-88309550D01*
X111725849Y-88309670D01*
X111781268Y-88309834D01*
X111829366Y-88310047D01*
X111870650Y-88310316D01*
X111905626Y-88310645D01*
X111934800Y-88311042D01*
X111958680Y-88311512D01*
X111977771Y-88312061D01*
X111992579Y-88312696D01*
X112003612Y-88313421D01*
X112011375Y-88314244D01*
X112016376Y-88315170D01*
X112019119Y-88316205D01*
X112020112Y-88317356D01*
X112020146Y-88317653D01*
X112017177Y-88329246D01*
X112008680Y-88348175D01*
X111995274Y-88373436D01*
X111977575Y-88404025D01*
X111956201Y-88438938D01*
X111931770Y-88477171D01*
X111904898Y-88517720D01*
X111876204Y-88559582D01*
X111846304Y-88601753D01*
X111840487Y-88609787D01*
X111818067Y-88639754D01*
X111790217Y-88675564D01*
X111758447Y-88715371D01*
X111724267Y-88757325D01*
X111689186Y-88799580D01*
X111654714Y-88840288D01*
X111622361Y-88877600D01*
X111613349Y-88887794D01*
X111597420Y-88905032D01*
X111575234Y-88928063D01*
X111548098Y-88955608D01*
X111517319Y-88986383D01*
X111484206Y-89019107D01*
X111450065Y-89052498D01*
X111416205Y-89085274D01*
X111383932Y-89116153D01*
X111354554Y-89143854D01*
X111329379Y-89167094D01*
X111318331Y-89177036D01*
X111165176Y-89306302D01*
X111004949Y-89428158D01*
X110838129Y-89542284D01*
X110665195Y-89648361D01*
X110486628Y-89746070D01*
X110397066Y-89790869D01*
X110206828Y-89877871D01*
X110009662Y-89957777D01*
X109806396Y-90030358D01*
X109597857Y-90095385D01*
X109384873Y-90152628D01*
X109168272Y-90201858D01*
X108948881Y-90242845D01*
X108727529Y-90275362D01*
X108591353Y-90290994D01*
X108563143Y-90293281D01*
X108526374Y-90295335D01*
X108482742Y-90297132D01*
X108433945Y-90298652D01*
X108381679Y-90299873D01*
X108327641Y-90300771D01*
X108273528Y-90301326D01*
X108221037Y-90301515D01*
X108171865Y-90301315D01*
X108127708Y-90300706D01*
X108090263Y-90299666D01*
X108061227Y-90298171D01*
X108057870Y-90297919D01*
X107886131Y-90280571D01*
X107716690Y-90255885D01*
X107550531Y-90224106D01*
X107388638Y-90185478D01*
X107231993Y-90140247D01*
X107081581Y-90088655D01*
X106938384Y-90030949D01*
X106881869Y-90005524D01*
X106750750Y-89939609D01*
X106627364Y-89867291D01*
X106511846Y-89788702D01*
X106404335Y-89703976D01*
X106304969Y-89613246D01*
X106213885Y-89516642D01*
X106131221Y-89414299D01*
X106057114Y-89306349D01*
X105991701Y-89192924D01*
X105949578Y-89106871D01*
X105906203Y-89004107D01*
X105868721Y-88900018D01*
X105837554Y-88796176D01*
X105813127Y-88694150D01*
X105795861Y-88595513D01*
X105786181Y-88501834D01*
X105786072Y-88500092D01*
X105784946Y-88475388D01*
X105785085Y-88459012D01*
X105786462Y-88451742D01*
X105787655Y-88451814D01*
X105791405Y-88458143D01*
X105798511Y-88472157D01*
X105808109Y-88492081D01*
X105819334Y-88516141D01*
X105825442Y-88529506D01*
X105875958Y-88632175D01*
X105932094Y-88729396D01*
X105994795Y-88822474D01*
X106065005Y-88912717D01*
X106143669Y-89001431D01*
X106228168Y-89086516D01*
X106324984Y-89172094D01*
X106428876Y-89250178D01*
X106539735Y-89320740D01*
X106657457Y-89383752D01*
X106781937Y-89439189D01*
X106913066Y-89487021D01*
X107050741Y-89527221D01*
X107194855Y-89559763D01*
X107345302Y-89584617D01*
X107501977Y-89601758D01*
X107664773Y-89611157D01*
X107833584Y-89612786D01*
X108008305Y-89606619D01*
X108179587Y-89593521D01*
X108345566Y-89575070D01*
X108504644Y-89551946D01*
X108658357Y-89523717D01*
X108808240Y-89489953D01*
X108955829Y-89450223D01*
X109102660Y-89404098D01*
X109250269Y-89351145D01*
X109400190Y-89290935D01*
X109553961Y-89223038D01*
X109632789Y-89186062D01*
X109740450Y-89130791D01*
X109845950Y-89068730D01*
X109950267Y-88999194D01*
X110054378Y-88921503D01*
X110159262Y-88834975D01*
X110241894Y-88761225D01*
X110292748Y-88712417D01*
X110344961Y-88658672D01*
X110396735Y-88602039D01*
X110446272Y-88544569D01*
X110491772Y-88488311D01*
X110531437Y-88435316D01*
X110545220Y-88415558D01*
X110561266Y-88392345D01*
X110578101Y-88368563D01*
X110593150Y-88347827D01*
X110599633Y-88339161D01*
X110622301Y-88309379D01*
X111321224Y-88309379D01*
X111420841Y-88309387D01*
G37*
G36*
X115056276Y-86238454D02*
G01*
X115115822Y-86238665D01*
X115166098Y-86239031D01*
X115207375Y-86239554D01*
X115239927Y-86240238D01*
X115264025Y-86241085D01*
X115279942Y-86242096D01*
X115286796Y-86242990D01*
X115315138Y-86253422D01*
X115338679Y-86270967D01*
X115355823Y-86293812D01*
X115364978Y-86320147D01*
X115366068Y-86333074D01*
X115364890Y-86342174D01*
X115361455Y-86360698D01*
X115355915Y-86387996D01*
X115348420Y-86423416D01*
X115339120Y-86466308D01*
X115328166Y-86516020D01*
X115315709Y-86571902D01*
X115301898Y-86633303D01*
X115286885Y-86699572D01*
X115270819Y-86770058D01*
X115253852Y-86844110D01*
X115236135Y-86921077D01*
X115217816Y-87000308D01*
X115199048Y-87081152D01*
X115179980Y-87162958D01*
X115160763Y-87245075D01*
X115141547Y-87326853D01*
X115122484Y-87407640D01*
X115103723Y-87486786D01*
X115085415Y-87563639D01*
X115067710Y-87637548D01*
X115050760Y-87707863D01*
X115034714Y-87773932D01*
X115019724Y-87835106D01*
X115005939Y-87890731D01*
X115005514Y-87892434D01*
X114982059Y-87985181D01*
X114960258Y-88068646D01*
X114939813Y-88143719D01*
X114920422Y-88211290D01*
X114901784Y-88272250D01*
X114883600Y-88327488D01*
X114865569Y-88377896D01*
X114847390Y-88424364D01*
X114828764Y-88467781D01*
X114809389Y-88509038D01*
X114788965Y-88549026D01*
X114775665Y-88573531D01*
X114716560Y-88669711D01*
X114649710Y-88759029D01*
X114575265Y-88841332D01*
X114493372Y-88916469D01*
X114404178Y-88984286D01*
X114330745Y-89031347D01*
X114228049Y-89087599D01*
X114123675Y-89135245D01*
X114016881Y-89174449D01*
X113906919Y-89205375D01*
X113793047Y-89228186D01*
X113674518Y-89243045D01*
X113550588Y-89250116D01*
X113420512Y-89249563D01*
X113351264Y-89246380D01*
X113283022Y-89241551D01*
X113216627Y-89235113D01*
X113147546Y-89226588D01*
X113102650Y-89220234D01*
X113056625Y-89213019D01*
X113010548Y-89204997D01*
X112965901Y-89196488D01*
X112924167Y-89187815D01*
X112886830Y-89179299D01*
X112855372Y-89171261D01*
X112831277Y-89164024D01*
X112816509Y-89158160D01*
X112796300Y-89142803D01*
X112779770Y-89120763D01*
X112769502Y-89095659D01*
X112768480Y-89090885D01*
X112768971Y-89081848D01*
X112771788Y-89063905D01*
X112776661Y-89038179D01*
X112783324Y-89005792D01*
X112791507Y-88967868D01*
X112800943Y-88925529D01*
X112811364Y-88879898D01*
X112822502Y-88832099D01*
X112834088Y-88783253D01*
X112845855Y-88734484D01*
X112857535Y-88686914D01*
X112868858Y-88641667D01*
X112879558Y-88599865D01*
X112889367Y-88562632D01*
X112898015Y-88531090D01*
X112905236Y-88506361D01*
X112910761Y-88489569D01*
X112913644Y-88482835D01*
X112932021Y-88460677D01*
X112956692Y-88445669D01*
X112985436Y-88439067D01*
X112991554Y-88438866D01*
X113005842Y-88439774D01*
X113027598Y-88442262D01*
X113054110Y-88445974D01*
X113082669Y-88450553D01*
X113089258Y-88451695D01*
X113202779Y-88469752D01*
X113311033Y-88483134D01*
X113413400Y-88491817D01*
X113509259Y-88495781D01*
X113597991Y-88495005D01*
X113678975Y-88489467D01*
X113751590Y-88479145D01*
X113771568Y-88475131D01*
X113836277Y-88456273D01*
X113895607Y-88428750D01*
X113949797Y-88392390D01*
X113999085Y-88347025D01*
X114043707Y-88292485D01*
X114058728Y-88270491D01*
X114080840Y-88234093D01*
X114101761Y-88194295D01*
X114121830Y-88150162D01*
X114141386Y-88100760D01*
X114160769Y-88045152D01*
X114180317Y-87982403D01*
X114200370Y-87911577D01*
X114221268Y-87831739D01*
X114228883Y-87801337D01*
X114241103Y-87751642D01*
X114254129Y-87697922D01*
X114267759Y-87641071D01*
X114281789Y-87581982D01*
X114296015Y-87521547D01*
X114310232Y-87460660D01*
X114324238Y-87400213D01*
X114337828Y-87341100D01*
X114350799Y-87284213D01*
X114362947Y-87230446D01*
X114374068Y-87180690D01*
X114383958Y-87135840D01*
X114392414Y-87096788D01*
X114399231Y-87064427D01*
X114404207Y-87039649D01*
X114407137Y-87023349D01*
X114407870Y-87017056D01*
X114403117Y-86987209D01*
X114389376Y-86961538D01*
X114367430Y-86940768D01*
X114338059Y-86925625D01*
X114302042Y-86916835D01*
X114299711Y-86916528D01*
X114276100Y-86912607D01*
X114259148Y-86907063D01*
X114245165Y-86898617D01*
X114242808Y-86896793D01*
X114225132Y-86878405D01*
X114210979Y-86855573D01*
X114202366Y-86832047D01*
X114200693Y-86818534D01*
X114201815Y-86810515D01*
X114205000Y-86793630D01*
X114209975Y-86769106D01*
X114216466Y-86738170D01*
X114224202Y-86702046D01*
X114232910Y-86661963D01*
X114242316Y-86619146D01*
X114252148Y-86574822D01*
X114262133Y-86530218D01*
X114271998Y-86486559D01*
X114281470Y-86445072D01*
X114290277Y-86406984D01*
X114298146Y-86373522D01*
X114304804Y-86345910D01*
X114309979Y-86325377D01*
X114312266Y-86316932D01*
X114325596Y-86286018D01*
X114345632Y-86261561D01*
X114363167Y-86249069D01*
X114366659Y-86247492D01*
X114371449Y-86246105D01*
X114378204Y-86244895D01*
X114387592Y-86243846D01*
X114400281Y-86242943D01*
X114416937Y-86242171D01*
X114438228Y-86241515D01*
X114464822Y-86240958D01*
X114497386Y-86240488D01*
X114536588Y-86240087D01*
X114583094Y-86239742D01*
X114637572Y-86239437D01*
X114700691Y-86239156D01*
X114773116Y-86238885D01*
X114819300Y-86238728D01*
X114908287Y-86238488D01*
X114987188Y-86238396D01*
X115056276Y-86238454D01*
G37*
G36*
X119691489Y-86200340D02*
G01*
X119763370Y-86204458D01*
X119827016Y-86209290D01*
X119884538Y-86215070D01*
X119938048Y-86222032D01*
X119989658Y-86230411D01*
X120027569Y-86237601D01*
X120133504Y-86262377D01*
X120230569Y-86292470D01*
X120318795Y-86327891D01*
X120398211Y-86368657D01*
X120468846Y-86414779D01*
X120530730Y-86466272D01*
X120540682Y-86475856D01*
X120572601Y-86509274D01*
X120599077Y-86541966D01*
X120622321Y-86577086D01*
X120644546Y-86617790D01*
X120654597Y-86638334D01*
X120678546Y-86693171D01*
X120697681Y-86747866D01*
X120713543Y-86806985D01*
X120717646Y-86825133D01*
X120721748Y-86845484D01*
X120724765Y-86864948D01*
X120726858Y-86885716D01*
X120728187Y-86909980D01*
X120728911Y-86939929D01*
X120729190Y-86977755D01*
X120729203Y-86983441D01*
X120729168Y-87020369D01*
X120728816Y-87048892D01*
X120727989Y-87070961D01*
X120726528Y-87088529D01*
X120724276Y-87103548D01*
X120721074Y-87117971D01*
X120717128Y-87132477D01*
X120704372Y-87169277D01*
X120689333Y-87196850D01*
X120671028Y-87216250D01*
X120648475Y-87228525D01*
X120621649Y-87234616D01*
X120611711Y-87235170D01*
X120592401Y-87235641D01*
X120564705Y-87236026D01*
X120529611Y-87236320D01*
X120488105Y-87236518D01*
X120441173Y-87236616D01*
X120389803Y-87236608D01*
X120334980Y-87236491D01*
X120277691Y-87236259D01*
X120276182Y-87236251D01*
X120210307Y-87235899D01*
X120153997Y-87235542D01*
X120106458Y-87235155D01*
X120066896Y-87234713D01*
X120034517Y-87234192D01*
X120008527Y-87233565D01*
X119988131Y-87232810D01*
X119972537Y-87231900D01*
X119960950Y-87230810D01*
X119952575Y-87229517D01*
X119946620Y-87227995D01*
X119942290Y-87226219D01*
X119941430Y-87225767D01*
X119918732Y-87208312D01*
X119901075Y-87183152D01*
X119887917Y-87149832D01*
X119868927Y-87103850D01*
X119840668Y-87060928D01*
X119803930Y-87021660D01*
X119759504Y-86986640D01*
X119708182Y-86956463D01*
X119650755Y-86931723D01*
X119588014Y-86913015D01*
X119566450Y-86908301D01*
X119545898Y-86905045D01*
X119518559Y-86901894D01*
X119487999Y-86899207D01*
X119457830Y-86897347D01*
X119376296Y-86898679D01*
X119295201Y-86910250D01*
X119214379Y-86932097D01*
X119133663Y-86964256D01*
X119114095Y-86973608D01*
X119038919Y-87016141D01*
X118969087Y-87066599D01*
X118905432Y-87124104D01*
X118848787Y-87187777D01*
X118799984Y-87256737D01*
X118759855Y-87330106D01*
X118745268Y-87363293D01*
X118739600Y-87379222D01*
X118731850Y-87404008D01*
X118722336Y-87436430D01*
X118711373Y-87475267D01*
X118699277Y-87519298D01*
X118686364Y-87567302D01*
X118672950Y-87618058D01*
X118659351Y-87670346D01*
X118645883Y-87722944D01*
X118632862Y-87774631D01*
X118620603Y-87824188D01*
X118609424Y-87870391D01*
X118599639Y-87912022D01*
X118591565Y-87947858D01*
X118585518Y-87976679D01*
X118582864Y-87990844D01*
X118572067Y-88072885D01*
X118568986Y-88149627D01*
X118573518Y-88220770D01*
X118585561Y-88286015D01*
X118605011Y-88345061D01*
X118631765Y-88397609D01*
X118665721Y-88443360D01*
X118706774Y-88482015D01*
X118754822Y-88513273D01*
X118764273Y-88518124D01*
X118790891Y-88530069D01*
X118820307Y-88541386D01*
X118847603Y-88550241D01*
X118857014Y-88552728D01*
X118911356Y-88562798D01*
X118972658Y-88569103D01*
X119038244Y-88571679D01*
X119105438Y-88570562D01*
X119171565Y-88565789D01*
X119233947Y-88557396D01*
X119284086Y-88546928D01*
X119353597Y-88524229D01*
X119417747Y-88492707D01*
X119476315Y-88452533D01*
X119529083Y-88403876D01*
X119575829Y-88346907D01*
X119608553Y-88295795D01*
X119626280Y-88266225D01*
X119641258Y-88244793D01*
X119654751Y-88230088D01*
X119668025Y-88220698D01*
X119680331Y-88215768D01*
X119689996Y-88214560D01*
X119709850Y-88213559D01*
X119739727Y-88212767D01*
X119779459Y-88212187D01*
X119828879Y-88211820D01*
X119887819Y-88211667D01*
X119956113Y-88211731D01*
X120030565Y-88211999D01*
X120362455Y-88213560D01*
X120382036Y-88228497D01*
X120400007Y-88247060D01*
X120413563Y-88270388D01*
X120420577Y-88294498D01*
X120421093Y-88301714D01*
X120418690Y-88323281D01*
X120411653Y-88352202D01*
X120400616Y-88386917D01*
X120386215Y-88425862D01*
X120369085Y-88467474D01*
X120349861Y-88510190D01*
X120329179Y-88552449D01*
X120307673Y-88592687D01*
X120291661Y-88620146D01*
X120231880Y-88708532D01*
X120163782Y-88790822D01*
X120087503Y-88866911D01*
X120003175Y-88936695D01*
X119910933Y-89000070D01*
X119810911Y-89056931D01*
X119703243Y-89107175D01*
X119628975Y-89136324D01*
X119536301Y-89166486D01*
X119435759Y-89192400D01*
X119329020Y-89213858D01*
X119217757Y-89230652D01*
X119103640Y-89242574D01*
X118988341Y-89249413D01*
X118873531Y-89250963D01*
X118760882Y-89247015D01*
X118748246Y-89246206D01*
X118627481Y-89234211D01*
X118513563Y-89214926D01*
X118406597Y-89188406D01*
X118306689Y-89154706D01*
X118213944Y-89113880D01*
X118128468Y-89065983D01*
X118050367Y-89011071D01*
X117979746Y-88949199D01*
X117916710Y-88880420D01*
X117861366Y-88804791D01*
X117843125Y-88775530D01*
X117804910Y-88703294D01*
X117774990Y-88628237D01*
X117753096Y-88549291D01*
X117738956Y-88465388D01*
X117732302Y-88375462D01*
X117731675Y-88335277D01*
X117732562Y-88279700D01*
X117735460Y-88229534D01*
X117740784Y-88180739D01*
X117748946Y-88129275D01*
X117757145Y-88086663D01*
X117760937Y-88069031D01*
X117766875Y-88042729D01*
X117774694Y-88008855D01*
X117784129Y-87968508D01*
X117794914Y-87922784D01*
X117806786Y-87872782D01*
X117819479Y-87819600D01*
X117832729Y-87764336D01*
X117846270Y-87708087D01*
X117859838Y-87651951D01*
X117873168Y-87597026D01*
X117885995Y-87544410D01*
X117898055Y-87495200D01*
X117909081Y-87450495D01*
X117918810Y-87411393D01*
X117926977Y-87378991D01*
X117933316Y-87354387D01*
X117937563Y-87338678D01*
X117937806Y-87337833D01*
X117977669Y-87218181D01*
X118026339Y-87103976D01*
X118083788Y-86995254D01*
X118149993Y-86892049D01*
X118224928Y-86794395D01*
X118308568Y-86702325D01*
X118400887Y-86615875D01*
X118501859Y-86535077D01*
X118570380Y-86486773D01*
X118681232Y-86418572D01*
X118796986Y-86359461D01*
X118917518Y-86309472D01*
X119042704Y-86268635D01*
X119172420Y-86236983D01*
X119306544Y-86214547D01*
X119444949Y-86201359D01*
X119587514Y-86197450D01*
X119691489Y-86200340D01*
G37*
G36*
X125484649Y-86200408D02*
G01*
X125556979Y-86204626D01*
X125621086Y-86209591D01*
X125679090Y-86215538D01*
X125733116Y-86222706D01*
X125785285Y-86231330D01*
X125818189Y-86237625D01*
X125923363Y-86262175D01*
X126019665Y-86291849D01*
X126107274Y-86326727D01*
X126186367Y-86366891D01*
X126257120Y-86412421D01*
X126319712Y-86463398D01*
X126325828Y-86469079D01*
X126373003Y-86520341D01*
X126414708Y-86580052D01*
X126450681Y-86647702D01*
X126480660Y-86722786D01*
X126504381Y-86804796D01*
X126508252Y-86821540D01*
X126512245Y-86841028D01*
X126515202Y-86859839D01*
X126517276Y-86880077D01*
X126518617Y-86903846D01*
X126519378Y-86933251D01*
X126519710Y-86970395D01*
X126519743Y-86980852D01*
X126519732Y-87018454D01*
X126519396Y-87047637D01*
X126518588Y-87070340D01*
X126517159Y-87088502D01*
X126514961Y-87104061D01*
X126511846Y-87118956D01*
X126508068Y-87133645D01*
X126496187Y-87168756D01*
X126481461Y-87195355D01*
X126462795Y-87215143D01*
X126449532Y-87224286D01*
X126445768Y-87226343D01*
X126441464Y-87228109D01*
X126435844Y-87229605D01*
X126428135Y-87230853D01*
X126417562Y-87231876D01*
X126403349Y-87232697D01*
X126384721Y-87233337D01*
X126360905Y-87233820D01*
X126331125Y-87234166D01*
X126294606Y-87234399D01*
X126250573Y-87234541D01*
X126198252Y-87234614D01*
X126136868Y-87234641D01*
X126090109Y-87234645D01*
X125748266Y-87234645D01*
X125728928Y-87222621D01*
X125708203Y-87206843D01*
X125693638Y-87187929D01*
X125682929Y-87162666D01*
X125680737Y-87155512D01*
X125661400Y-87106995D01*
X125633344Y-87062790D01*
X125597390Y-87023171D01*
X125554356Y-86988407D01*
X125505062Y-86958771D01*
X125450329Y-86934535D01*
X125390975Y-86915969D01*
X125327821Y-86903347D01*
X125261685Y-86896938D01*
X125193387Y-86897015D01*
X125123748Y-86903849D01*
X125053586Y-86917712D01*
X125005016Y-86931609D01*
X124969873Y-86944805D01*
X124929636Y-86962870D01*
X124887318Y-86984222D01*
X124845933Y-87007282D01*
X124808496Y-87030472D01*
X124784745Y-87047054D01*
X124726022Y-87096020D01*
X124670692Y-87152099D01*
X124620918Y-87212843D01*
X124578862Y-87275800D01*
X124571238Y-87289029D01*
X124562782Y-87304493D01*
X124554959Y-87319800D01*
X124547528Y-87335743D01*
X124540248Y-87353116D01*
X124532880Y-87372711D01*
X124525182Y-87395321D01*
X124516915Y-87421741D01*
X124507838Y-87452761D01*
X124497710Y-87489177D01*
X124486291Y-87531780D01*
X124473341Y-87581364D01*
X124458620Y-87638722D01*
X124441886Y-87704646D01*
X124425219Y-87770717D01*
X124408403Y-87838777D01*
X124394484Y-87898234D01*
X124383275Y-87950372D01*
X124374587Y-87996476D01*
X124368234Y-88037833D01*
X124364028Y-88075726D01*
X124361780Y-88111442D01*
X124361304Y-88146265D01*
X124362413Y-88181481D01*
X124363223Y-88195432D01*
X124371852Y-88263892D01*
X124388404Y-88325860D01*
X124412752Y-88381176D01*
X124444772Y-88429685D01*
X124484337Y-88471227D01*
X124531321Y-88505646D01*
X124585598Y-88532784D01*
X124647043Y-88552483D01*
X124648577Y-88552856D01*
X124704129Y-88563209D01*
X124766577Y-88569536D01*
X124833294Y-88571886D01*
X124901652Y-88570309D01*
X124969023Y-88564855D01*
X125032781Y-88555573D01*
X125082327Y-88544670D01*
X125149643Y-88521731D01*
X125212671Y-88489596D01*
X125270795Y-88448755D01*
X125323402Y-88399700D01*
X125369878Y-88342918D01*
X125405079Y-88287197D01*
X125423886Y-88256391D01*
X125441333Y-88234600D01*
X125458464Y-88220766D01*
X125476325Y-88213828D01*
X125477792Y-88213544D01*
X125485805Y-88213039D01*
X125503246Y-88212608D01*
X125529187Y-88212254D01*
X125562700Y-88211982D01*
X125602853Y-88211795D01*
X125648719Y-88211699D01*
X125699367Y-88211696D01*
X125753868Y-88211791D01*
X125811294Y-88211988D01*
X125823774Y-88212043D01*
X126153075Y-88213560D01*
X126172656Y-88228497D01*
X126192190Y-88249072D01*
X126205830Y-88274944D01*
X126211636Y-88302299D01*
X126211713Y-88305227D01*
X126209496Y-88323890D01*
X126203104Y-88350005D01*
X126193180Y-88381854D01*
X126180366Y-88417720D01*
X126165306Y-88455885D01*
X126148643Y-88494630D01*
X126131019Y-88532238D01*
X126115186Y-88563105D01*
X126064698Y-88648496D01*
X126008612Y-88726872D01*
X125945024Y-88800768D01*
X125910549Y-88836114D01*
X125875790Y-88869614D01*
X125844288Y-88897945D01*
X125813150Y-88923440D01*
X125779485Y-88948431D01*
X125740401Y-88975253D01*
X125727548Y-88983767D01*
X125628140Y-89043267D01*
X125521998Y-89095274D01*
X125409016Y-89139825D01*
X125289086Y-89176953D01*
X125162099Y-89206692D01*
X125027948Y-89229077D01*
X124916965Y-89241572D01*
X124884265Y-89243940D01*
X124844091Y-89245929D01*
X124798660Y-89247510D01*
X124750189Y-89248652D01*
X124700894Y-89249326D01*
X124652992Y-89249502D01*
X124608698Y-89249150D01*
X124570231Y-89248240D01*
X124539805Y-89246741D01*
X124538866Y-89246675D01*
X124418046Y-89234209D01*
X124304291Y-89214785D01*
X124197762Y-89188451D01*
X124098619Y-89155255D01*
X124007023Y-89115242D01*
X123923135Y-89068461D01*
X123913384Y-89062260D01*
X123871130Y-89033565D01*
X123833201Y-89004402D01*
X123796524Y-88972203D01*
X123758023Y-88934404D01*
X123749000Y-88925079D01*
X123689050Y-88855725D01*
X123638377Y-88782130D01*
X123596927Y-88704142D01*
X123564650Y-88621609D01*
X123541492Y-88534382D01*
X123527402Y-88442308D01*
X123522328Y-88345237D01*
X123524173Y-88273123D01*
X123525694Y-88248816D01*
X123527570Y-88225501D01*
X123529986Y-88202227D01*
X123533127Y-88178045D01*
X123537175Y-88152002D01*
X123542315Y-88123148D01*
X123548731Y-88090531D01*
X123556607Y-88053201D01*
X123566128Y-88010206D01*
X123577476Y-87960596D01*
X123590836Y-87903420D01*
X123606393Y-87837726D01*
X123617147Y-87792611D01*
X123635615Y-87715328D01*
X123651889Y-87647368D01*
X123666160Y-87587972D01*
X123678620Y-87536385D01*
X123689462Y-87491847D01*
X123698877Y-87453601D01*
X123707058Y-87420890D01*
X123714197Y-87392956D01*
X123720485Y-87369041D01*
X123726114Y-87348389D01*
X123731277Y-87330240D01*
X123736166Y-87313839D01*
X123740971Y-87298426D01*
X123745887Y-87283245D01*
X123747396Y-87278670D01*
X123791140Y-87162694D01*
X123843944Y-87051439D01*
X123905495Y-86945379D01*
X123975479Y-86844990D01*
X124053584Y-86750744D01*
X124139498Y-86663119D01*
X124172755Y-86632865D01*
X124277306Y-86547237D01*
X124386193Y-86470989D01*
X124499436Y-86404114D01*
X124617055Y-86346607D01*
X124739071Y-86298460D01*
X124865504Y-86259666D01*
X124996374Y-86230219D01*
X125131701Y-86210113D01*
X125271506Y-86199340D01*
X125415808Y-86197895D01*
X125484649Y-86200408D01*
G37*
G36*
X116238707Y-86237811D02*
G01*
X116288158Y-86238070D01*
X116335012Y-86238465D01*
X116378103Y-86238994D01*
X116416263Y-86239656D01*
X116448327Y-86240452D01*
X116473127Y-86241380D01*
X116489498Y-86242439D01*
X116495083Y-86243201D01*
X116514121Y-86249782D01*
X116532247Y-86259399D01*
X116535788Y-86261896D01*
X116551195Y-86277992D01*
X116563866Y-86299005D01*
X116571521Y-86320671D01*
X116572765Y-86331050D01*
X116571582Y-86337312D01*
X116568085Y-86353166D01*
X116562388Y-86378134D01*
X116554605Y-86411738D01*
X116544849Y-86453499D01*
X116533233Y-86502940D01*
X116519870Y-86559581D01*
X116504875Y-86622945D01*
X116488361Y-86692554D01*
X116470440Y-86767928D01*
X116451227Y-86848590D01*
X116430834Y-86934062D01*
X116409376Y-87023865D01*
X116386966Y-87117521D01*
X116363716Y-87214551D01*
X116339741Y-87314478D01*
X116324265Y-87378914D01*
X116299884Y-87480459D01*
X116276156Y-87579428D01*
X116253195Y-87675343D01*
X116231114Y-87767725D01*
X116210027Y-87856092D01*
X116190047Y-87939967D01*
X116171287Y-88018868D01*
X116153862Y-88092318D01*
X116137885Y-88159835D01*
X116123470Y-88220940D01*
X116110729Y-88275154D01*
X116099777Y-88321997D01*
X116090727Y-88360990D01*
X116083693Y-88391653D01*
X116078788Y-88413505D01*
X116076126Y-88426068D01*
X116075652Y-88428995D01*
X116080434Y-88455858D01*
X116093576Y-88481821D01*
X116113269Y-88503998D01*
X116130036Y-88515755D01*
X116132980Y-88517022D01*
X116137341Y-88518167D01*
X116143659Y-88519197D01*
X116152471Y-88520123D01*
X116164319Y-88520952D01*
X116179741Y-88521694D01*
X116199277Y-88522357D01*
X116223465Y-88522952D01*
X116252846Y-88523487D01*
X116287959Y-88523971D01*
X116329342Y-88524412D01*
X116377536Y-88524821D01*
X116433080Y-88525206D01*
X116496513Y-88525576D01*
X116568374Y-88525940D01*
X116649203Y-88526308D01*
X116739540Y-88526687D01*
X116796410Y-88526916D01*
X117447246Y-88529506D01*
X117467149Y-88545593D01*
X117490068Y-88568767D01*
X117503179Y-88593674D01*
X117507028Y-88619740D01*
X117505783Y-88630026D01*
X117502307Y-88649128D01*
X117496890Y-88675819D01*
X117489821Y-88708867D01*
X117481390Y-88747042D01*
X117471888Y-88789115D01*
X117461603Y-88833856D01*
X117450827Y-88880035D01*
X117439848Y-88926422D01*
X117428957Y-88971786D01*
X117418443Y-89014899D01*
X117408596Y-89054529D01*
X117399706Y-89089448D01*
X117392063Y-89118424D01*
X117385957Y-89140229D01*
X117381677Y-89153631D01*
X117380612Y-89156219D01*
X117364322Y-89178767D01*
X117340731Y-89195903D01*
X117312220Y-89205898D01*
X117312189Y-89205903D01*
X117304889Y-89206324D01*
X117287733Y-89206733D01*
X117261224Y-89207126D01*
X117225865Y-89207503D01*
X117182159Y-89207862D01*
X117130608Y-89208200D01*
X117071717Y-89208516D01*
X117005987Y-89208808D01*
X116933922Y-89209073D01*
X116856025Y-89209310D01*
X116772799Y-89209516D01*
X116684746Y-89209691D01*
X116592369Y-89209832D01*
X116496173Y-89209936D01*
X116396658Y-89210003D01*
X116294329Y-89210029D01*
X116249163Y-89210028D01*
X116122319Y-89210001D01*
X116005459Y-89209951D01*
X115898208Y-89209874D01*
X115800191Y-89209769D01*
X115711033Y-89209634D01*
X115630359Y-89209465D01*
X115557795Y-89209260D01*
X115492964Y-89209018D01*
X115435493Y-89208735D01*
X115385006Y-89208410D01*
X115341129Y-89208039D01*
X115303486Y-89207621D01*
X115271702Y-89207153D01*
X115245403Y-89206633D01*
X115224214Y-89206058D01*
X115207759Y-89205426D01*
X115195664Y-89204735D01*
X115187554Y-89203982D01*
X115183343Y-89203247D01*
X115165425Y-89196590D01*
X115149572Y-89187705D01*
X115145109Y-89184174D01*
X115131011Y-89166790D01*
X115119629Y-89144845D01*
X115113136Y-89122943D01*
X115112389Y-89114781D01*
X115113573Y-89108195D01*
X115117069Y-89092036D01*
X115122759Y-89066801D01*
X115130523Y-89032988D01*
X115140243Y-88991093D01*
X115151800Y-88941613D01*
X115165073Y-88885046D01*
X115179945Y-88821888D01*
X115196297Y-88752636D01*
X115214008Y-88677787D01*
X115232962Y-88597838D01*
X115253037Y-88513286D01*
X115274116Y-88424628D01*
X115296079Y-88332361D01*
X115318807Y-88236982D01*
X115342181Y-88138987D01*
X115366083Y-88038875D01*
X115390393Y-87937141D01*
X115414992Y-87834283D01*
X115439761Y-87730797D01*
X115464582Y-87627181D01*
X115489334Y-87523932D01*
X115513900Y-87421546D01*
X115538160Y-87320520D01*
X115561994Y-87221352D01*
X115585285Y-87124538D01*
X115607913Y-87030576D01*
X115629759Y-86939961D01*
X115650704Y-86853192D01*
X115670629Y-86770765D01*
X115689415Y-86693177D01*
X115706943Y-86620926D01*
X115723094Y-86554507D01*
X115737749Y-86494418D01*
X115750788Y-86441156D01*
X115762094Y-86395218D01*
X115771546Y-86357101D01*
X115779026Y-86327302D01*
X115784415Y-86306317D01*
X115787594Y-86294644D01*
X115788332Y-86292424D01*
X115805035Y-86268921D01*
X115829323Y-86252038D01*
X115857983Y-86242806D01*
X115869248Y-86241674D01*
X115889580Y-86240685D01*
X115917814Y-86239838D01*
X115952783Y-86239132D01*
X115993321Y-86238565D01*
X116038260Y-86238139D01*
X116086435Y-86237850D01*
X116136679Y-86237700D01*
X116187825Y-86237687D01*
X116238707Y-86237811D01*
G37*
G36*
X122137615Y-86238242D02*
G01*
X122223030Y-86238407D01*
X122300432Y-86238751D01*
X122370407Y-86239295D01*
X122433541Y-86240058D01*
X122490421Y-86241060D01*
X122541633Y-86242322D01*
X122587763Y-86243862D01*
X122629397Y-86245702D01*
X122667122Y-86247861D01*
X122701524Y-86250359D01*
X122733189Y-86253215D01*
X122762704Y-86256451D01*
X122790654Y-86260085D01*
X122817627Y-86264137D01*
X122844207Y-86268628D01*
X122870983Y-86273578D01*
X122874197Y-86274196D01*
X122968682Y-86296358D01*
X123057784Y-86325186D01*
X123140877Y-86360328D01*
X123217330Y-86401435D01*
X123286516Y-86448154D01*
X123347806Y-86500137D01*
X123400570Y-86557031D01*
X123415576Y-86576249D01*
X123438331Y-86610087D01*
X123461566Y-86650561D01*
X123483615Y-86694297D01*
X123502810Y-86737921D01*
X123517483Y-86778061D01*
X123520836Y-86789212D01*
X123536840Y-86860615D01*
X123546495Y-86937116D01*
X123549599Y-87015477D01*
X123545950Y-87092458D01*
X123541911Y-87126767D01*
X123537833Y-87150946D01*
X123531491Y-87182969D01*
X123523387Y-87220695D01*
X123514025Y-87261986D01*
X123503907Y-87304702D01*
X123493537Y-87346703D01*
X123483416Y-87385851D01*
X123474049Y-87420005D01*
X123468756Y-87438011D01*
X123459056Y-87467445D01*
X123446323Y-87502644D01*
X123431715Y-87540691D01*
X123416390Y-87578672D01*
X123401505Y-87613671D01*
X123388218Y-87642775D01*
X123384047Y-87651251D01*
X123331834Y-87743307D01*
X123271656Y-87828819D01*
X123203650Y-87907696D01*
X123127955Y-87979844D01*
X123044710Y-88045174D01*
X122954052Y-88103592D01*
X122856119Y-88155008D01*
X122751051Y-88199330D01*
X122638985Y-88236467D01*
X122520060Y-88266325D01*
X122430831Y-88283173D01*
X122399490Y-88288273D01*
X122371092Y-88292713D01*
X122344662Y-88296542D01*
X122319227Y-88299811D01*
X122293814Y-88302571D01*
X122267447Y-88304874D01*
X122239153Y-88306769D01*
X122207959Y-88308307D01*
X122172889Y-88309539D01*
X122132971Y-88310516D01*
X122087230Y-88311289D01*
X122034692Y-88311908D01*
X121974383Y-88312424D01*
X121905329Y-88312888D01*
X121854713Y-88313189D01*
X121483182Y-88315338D01*
X121478072Y-88334372D01*
X121476057Y-88342332D01*
X121471791Y-88359548D01*
X121465472Y-88385213D01*
X121457296Y-88418516D01*
X121447462Y-88458649D01*
X121436169Y-88504804D01*
X121423613Y-88556172D01*
X121409994Y-88611943D01*
X121395508Y-88671310D01*
X121380355Y-88733464D01*
X121376415Y-88749632D01*
X121361115Y-88812228D01*
X121346382Y-88872131D01*
X121332416Y-88928544D01*
X121319420Y-88980672D01*
X121307593Y-89027720D01*
X121297139Y-89068890D01*
X121288257Y-89103386D01*
X121281150Y-89130414D01*
X121276018Y-89149177D01*
X121273063Y-89158879D01*
X121272668Y-89159836D01*
X121258168Y-89178339D01*
X121236659Y-89193919D01*
X121211478Y-89204233D01*
X121208378Y-89205003D01*
X121198509Y-89206065D01*
X121179441Y-89206998D01*
X121152327Y-89207802D01*
X121118321Y-89208479D01*
X121078573Y-89209028D01*
X121034238Y-89209451D01*
X120986467Y-89209746D01*
X120936412Y-89209916D01*
X120885227Y-89209959D01*
X120834064Y-89209877D01*
X120784074Y-89209670D01*
X120736411Y-89209338D01*
X120692227Y-89208882D01*
X120652675Y-89208301D01*
X120618907Y-89207598D01*
X120592075Y-89206771D01*
X120573332Y-89205821D01*
X120563974Y-89204784D01*
X120537302Y-89193876D01*
X120515163Y-89175854D01*
X120499078Y-89152784D01*
X120490566Y-89126727D01*
X120490283Y-89104734D01*
X120491725Y-89097932D01*
X120495482Y-89081471D01*
X120501455Y-89055765D01*
X120509546Y-89021229D01*
X120519657Y-88978278D01*
X120531688Y-88927327D01*
X120545541Y-88868789D01*
X120561118Y-88803080D01*
X120578321Y-88730615D01*
X120597049Y-88651807D01*
X120617206Y-88567072D01*
X120638692Y-88476824D01*
X120661410Y-88381478D01*
X120685259Y-88281449D01*
X120710143Y-88177150D01*
X120735961Y-88068997D01*
X120762617Y-87957405D01*
X120790010Y-87842788D01*
X120818043Y-87725560D01*
X120825252Y-87695427D01*
X120835463Y-87652758D01*
X121638376Y-87652758D01*
X121927130Y-87649967D01*
X121994782Y-87649250D01*
X122052853Y-87648487D01*
X122102119Y-87647655D01*
X122143358Y-87646728D01*
X122177347Y-87645682D01*
X122204864Y-87644494D01*
X122226686Y-87643138D01*
X122243590Y-87641590D01*
X122256353Y-87639826D01*
X122257714Y-87639586D01*
X122338509Y-87620533D01*
X122412253Y-87593993D01*
X122478891Y-87559994D01*
X122538368Y-87518567D01*
X122590627Y-87469740D01*
X122605329Y-87453135D01*
X122628481Y-87421859D01*
X122651189Y-87384195D01*
X122671379Y-87343982D01*
X122686979Y-87305062D01*
X122689669Y-87296798D01*
X122696309Y-87268464D01*
X122701162Y-87234056D01*
X122704027Y-87197018D01*
X122704705Y-87160792D01*
X122702995Y-87128822D01*
X122700429Y-87111568D01*
X122685415Y-87064122D01*
X122661323Y-87019825D01*
X122629291Y-86980110D01*
X122590455Y-86946409D01*
X122549959Y-86922076D01*
X122527753Y-86911633D01*
X122506234Y-86902635D01*
X122484466Y-86894983D01*
X122461512Y-86888578D01*
X122436436Y-86883321D01*
X122408301Y-86879112D01*
X122376173Y-86875853D01*
X122339113Y-86873445D01*
X122296187Y-86871788D01*
X122246458Y-86870784D01*
X122188989Y-86870333D01*
X122122845Y-86870336D01*
X122063526Y-86870597D01*
X121802399Y-86872083D01*
X121720600Y-87250183D01*
X121707383Y-87311423D01*
X121694822Y-87369910D01*
X121683090Y-87424825D01*
X121672357Y-87475350D01*
X121662797Y-87520668D01*
X121654580Y-87559960D01*
X121647879Y-87592407D01*
X121642866Y-87617193D01*
X121639712Y-87633499D01*
X121638589Y-87640507D01*
X121638588Y-87640520D01*
X121638376Y-87652758D01*
X120835463Y-87652758D01*
X120860748Y-87547106D01*
X120893925Y-87408598D01*
X120924846Y-87279635D01*
X120953579Y-87159948D01*
X120980188Y-87049269D01*
X121004739Y-86947331D01*
X121027298Y-86853866D01*
X121047930Y-86768605D01*
X121066700Y-86691281D01*
X121083675Y-86621625D01*
X121098920Y-86559370D01*
X121112500Y-86504248D01*
X121124481Y-86455991D01*
X121134928Y-86414330D01*
X121143907Y-86378998D01*
X121151484Y-86349727D01*
X121157724Y-86326249D01*
X121162693Y-86308295D01*
X121166456Y-86295598D01*
X121169078Y-86287890D01*
X121170159Y-86285502D01*
X121187325Y-86264465D01*
X121204821Y-86251836D01*
X121226610Y-86240191D01*
X121827426Y-86238626D01*
X121940399Y-86238371D01*
X122043600Y-86238237D01*
X122137615Y-86238242D01*
G37*
G36*
X127638107Y-86237700D02*
G01*
X127708081Y-86237830D01*
X127777014Y-86238041D01*
X127844093Y-86238335D01*
X127908503Y-86238710D01*
X127969429Y-86239169D01*
X128026059Y-86239711D01*
X128077577Y-86240337D01*
X128123169Y-86241047D01*
X128162021Y-86241841D01*
X128192964Y-86242708D01*
X128277529Y-86246217D01*
X128353490Y-86250827D01*
X128422560Y-86256685D01*
X128486451Y-86263940D01*
X128546874Y-86272738D01*
X128554259Y-86273952D01*
X128661287Y-86294925D01*
X128759180Y-86320679D01*
X128847929Y-86351209D01*
X128927525Y-86386507D01*
X128997961Y-86426568D01*
X129059226Y-86471386D01*
X129111311Y-86520955D01*
X129154209Y-86575267D01*
X129187910Y-86634318D01*
X129212406Y-86698101D01*
X129222963Y-86740007D01*
X129231663Y-86796291D01*
X129234938Y-86855134D01*
X129232739Y-86918117D01*
X129225019Y-86986819D01*
X129213461Y-87054082D01*
X129191489Y-87142760D01*
X129161343Y-87226591D01*
X129123410Y-87304961D01*
X129078077Y-87377254D01*
X129025732Y-87442858D01*
X128966762Y-87501158D01*
X128901554Y-87551541D01*
X128898249Y-87553766D01*
X128857903Y-87578599D01*
X128811188Y-87603816D01*
X128761845Y-87627558D01*
X128713619Y-87647969D01*
X128692781Y-87655748D01*
X128671937Y-87663188D01*
X128654002Y-87669669D01*
X128641831Y-87674158D01*
X128639202Y-87675170D01*
X128637342Y-87677902D01*
X128643126Y-87682078D01*
X128657369Y-87688125D01*
X128678048Y-87695505D01*
X128731734Y-87715897D01*
X128777763Y-87738219D01*
X128818833Y-87764058D01*
X128857638Y-87794997D01*
X128875949Y-87811835D01*
X128919215Y-87859568D01*
X128953785Y-87911962D01*
X128979915Y-87969588D01*
X128997860Y-88033016D01*
X129007875Y-88102814D01*
X129008211Y-88106992D01*
X129009534Y-88180539D01*
X129002865Y-88257870D01*
X128988789Y-88337510D01*
X128967890Y-88417985D01*
X128940752Y-88497820D01*
X128907959Y-88575540D01*
X128870095Y-88649672D01*
X128827745Y-88718739D01*
X128781492Y-88781269D01*
X128731921Y-88835785D01*
X128712266Y-88854155D01*
X128633482Y-88919307D01*
X128553140Y-88975547D01*
X128468927Y-89024294D01*
X128378533Y-89066968D01*
X128340578Y-89082479D01*
X128255582Y-89112981D01*
X128167388Y-89138865D01*
X128074879Y-89160330D01*
X127976937Y-89177577D01*
X127872444Y-89190806D01*
X127760283Y-89200218D01*
X127654302Y-89205503D01*
X127634536Y-89206034D01*
X127606175Y-89206535D01*
X127569990Y-89207005D01*
X127526751Y-89207444D01*
X127477228Y-89207849D01*
X127422190Y-89208221D01*
X127362407Y-89208558D01*
X127298649Y-89208859D01*
X127231686Y-89209123D01*
X127162287Y-89209350D01*
X127091223Y-89209537D01*
X127019264Y-89209685D01*
X126947178Y-89209792D01*
X126875737Y-89209857D01*
X126805710Y-89209880D01*
X126737866Y-89209858D01*
X126672976Y-89209792D01*
X126611809Y-89209679D01*
X126555136Y-89209520D01*
X126503726Y-89209313D01*
X126458348Y-89209057D01*
X126419774Y-89208751D01*
X126388772Y-89208394D01*
X126366112Y-89207985D01*
X126352565Y-89207524D01*
X126349082Y-89207211D01*
X126335114Y-89204249D01*
X126327164Y-89202557D01*
X126313097Y-89196016D01*
X126297033Y-89183491D01*
X126282170Y-89167956D01*
X126271712Y-89152387D01*
X126270619Y-89149992D01*
X126265765Y-89132826D01*
X126263626Y-89114277D01*
X126263621Y-89113517D01*
X126264808Y-89107294D01*
X126268289Y-89091495D01*
X126273947Y-89066619D01*
X126281662Y-89033162D01*
X126291317Y-88991623D01*
X126302792Y-88942500D01*
X126315969Y-88886292D01*
X126330729Y-88823494D01*
X126346955Y-88754607D01*
X126364526Y-88680128D01*
X126383326Y-88600554D01*
X126403235Y-88516384D01*
X126404485Y-88511104D01*
X127223826Y-88511104D01*
X127224598Y-88523849D01*
X127227005Y-88534123D01*
X127230941Y-88542874D01*
X127236295Y-88551049D01*
X127240801Y-88556902D01*
X127255344Y-88571478D01*
X127273281Y-88584745D01*
X127279092Y-88588080D01*
X127302100Y-88600040D01*
X127514457Y-88597894D01*
X127572255Y-88597220D01*
X127620746Y-88596438D01*
X127660983Y-88595506D01*
X127694017Y-88594382D01*
X127720901Y-88593022D01*
X127742687Y-88591384D01*
X127760427Y-88589425D01*
X127773584Y-88587392D01*
X127853556Y-88569427D01*
X127925005Y-88545621D01*
X127987982Y-88515945D01*
X128042535Y-88480370D01*
X128088715Y-88438869D01*
X128126573Y-88391415D01*
X128128161Y-88389017D01*
X128153532Y-88343507D01*
X128169383Y-88297966D01*
X128176347Y-88250309D01*
X128176774Y-88229098D01*
X128171468Y-88178370D01*
X128157004Y-88132477D01*
X128133429Y-88091501D01*
X128100789Y-88055526D01*
X128063478Y-88027352D01*
X128033147Y-88010056D01*
X128001617Y-87996561D01*
X127965577Y-87985621D01*
X127932953Y-87978211D01*
X127919997Y-87975695D01*
X127907322Y-87973607D01*
X127893841Y-87971906D01*
X127878470Y-87970554D01*
X127860125Y-87969511D01*
X127837720Y-87968738D01*
X127810171Y-87968195D01*
X127776393Y-87967842D01*
X127735301Y-87967642D01*
X127685812Y-87967553D01*
X127638988Y-87967536D01*
X127580847Y-87967532D01*
X127532126Y-87967594D01*
X127491889Y-87967830D01*
X127459196Y-87968349D01*
X127433111Y-87969261D01*
X127412694Y-87970674D01*
X127397009Y-87972697D01*
X127385116Y-87975440D01*
X127376079Y-87979012D01*
X127368959Y-87983522D01*
X127362818Y-87989078D01*
X127356718Y-87995790D01*
X127352291Y-88000870D01*
X127348417Y-88005135D01*
X127345147Y-88008807D01*
X127342226Y-88012759D01*
X127339404Y-88017859D01*
X127336428Y-88024979D01*
X127333046Y-88034990D01*
X127329004Y-88048761D01*
X127324052Y-88067165D01*
X127317937Y-88091071D01*
X127310405Y-88121349D01*
X127301206Y-88158872D01*
X127290086Y-88204509D01*
X127276793Y-88259130D01*
X127273385Y-88273123D01*
X127259656Y-88329693D01*
X127248324Y-88377160D01*
X127239281Y-88416470D01*
X127232419Y-88448572D01*
X127227628Y-88474414D01*
X127224800Y-88494942D01*
X127223826Y-88511104D01*
X126404485Y-88511104D01*
X126424134Y-88428116D01*
X126445906Y-88336247D01*
X126468432Y-88241276D01*
X126491592Y-88143700D01*
X126515269Y-88044018D01*
X126539344Y-87942728D01*
X126563699Y-87840327D01*
X126588215Y-87737313D01*
X126612772Y-87634184D01*
X126637254Y-87531439D01*
X126661215Y-87430941D01*
X127467840Y-87430941D01*
X127468177Y-87436757D01*
X127469192Y-87441186D01*
X127470034Y-87443452D01*
X127477072Y-87456282D01*
X127487021Y-87465110D01*
X127501967Y-87470906D01*
X127523995Y-87474642D01*
X127540354Y-87476209D01*
X127565832Y-87477641D01*
X127598541Y-87478521D01*
X127636682Y-87478888D01*
X127678455Y-87478778D01*
X127722060Y-87478228D01*
X127765698Y-87477277D01*
X127807568Y-87475961D01*
X127845872Y-87474318D01*
X127878810Y-87472385D01*
X127904581Y-87470200D01*
X127918454Y-87468361D01*
X128001808Y-87450450D01*
X128078200Y-87426998D01*
X128146744Y-87398299D01*
X128178029Y-87381944D01*
X128211000Y-87360207D01*
X128245281Y-87332084D01*
X128278555Y-87299922D01*
X128308509Y-87266065D01*
X128332825Y-87232860D01*
X128343901Y-87213927D01*
X128366556Y-87160902D01*
X128379574Y-87107170D01*
X128383538Y-87055954D01*
X128380047Y-87008579D01*
X128368672Y-86966429D01*
X128349194Y-86929333D01*
X128321395Y-86897121D01*
X128285054Y-86869621D01*
X128239955Y-86846665D01*
X128185877Y-86828080D01*
X128122604Y-86813698D01*
X128060920Y-86804590D01*
X128032449Y-86801926D01*
X127997062Y-86799861D01*
X127953966Y-86798369D01*
X127902370Y-86797427D01*
X127841481Y-86797009D01*
X127819070Y-86796981D01*
X127771592Y-86796994D01*
X127733373Y-86797078D01*
X127703312Y-86797299D01*
X127680309Y-86797726D01*
X127663264Y-86798425D01*
X127651076Y-86799464D01*
X127642646Y-86800910D01*
X127636872Y-86802831D01*
X127632655Y-86805293D01*
X127628895Y-86808365D01*
X127628585Y-86808635D01*
X127625588Y-86811895D01*
X127622467Y-86816931D01*
X127619006Y-86824505D01*
X127614989Y-86835379D01*
X127610199Y-86850315D01*
X127604419Y-86870076D01*
X127597432Y-86895424D01*
X127589023Y-86927120D01*
X127578974Y-86965929D01*
X127567068Y-87012610D01*
X127553091Y-87067928D01*
X127539138Y-87123423D01*
X127523350Y-87186378D01*
X127509940Y-87240079D01*
X127498737Y-87285312D01*
X127489571Y-87322865D01*
X127482272Y-87353523D01*
X127476670Y-87378075D01*
X127472596Y-87397305D01*
X127469880Y-87412002D01*
X127468351Y-87422952D01*
X127467840Y-87430941D01*
X126661215Y-87430941D01*
X126661541Y-87429575D01*
X126685515Y-87329091D01*
X126709057Y-87230483D01*
X126732049Y-87134251D01*
X126754372Y-87040892D01*
X126775908Y-86950904D01*
X126796537Y-86864785D01*
X126816143Y-86783033D01*
X126834605Y-86706146D01*
X126851805Y-86634622D01*
X126867626Y-86568959D01*
X126881947Y-86509655D01*
X126894652Y-86457207D01*
X126905621Y-86412114D01*
X126914735Y-86374874D01*
X126921877Y-86345985D01*
X126926927Y-86325944D01*
X126929755Y-86315293D01*
X126943178Y-86285408D01*
X126963704Y-86262427D01*
X126990352Y-86247300D01*
X127004236Y-86243274D01*
X127013641Y-86242377D01*
X127032592Y-86241556D01*
X127060272Y-86240813D01*
X127095868Y-86240147D01*
X127138566Y-86239558D01*
X127187552Y-86239048D01*
X127242011Y-86238617D01*
X127301129Y-86238264D01*
X127364091Y-86237991D01*
X127430085Y-86237798D01*
X127498295Y-86237685D01*
X127567907Y-86237652D01*
X127638107Y-86237700D01*
G37*
G36*
X107283599Y-86399459D02*
G01*
X107282218Y-86405946D01*
X107278879Y-86421940D01*
X107273713Y-86446801D01*
X107266851Y-86479892D01*
X107258427Y-86520573D01*
X107248572Y-86568204D01*
X107237418Y-86622149D01*
X107225098Y-86681766D01*
X107211743Y-86746418D01*
X107197486Y-86815466D01*
X107182459Y-86888271D01*
X107166794Y-86964193D01*
X107156427Y-87014452D01*
X107140325Y-87092457D01*
X107124701Y-87168024D01*
X107109693Y-87240489D01*
X107095440Y-87309188D01*
X107082081Y-87373456D01*
X107069754Y-87432628D01*
X107058599Y-87486041D01*
X107048753Y-87533028D01*
X107040356Y-87572927D01*
X107033546Y-87605072D01*
X107028462Y-87628799D01*
X107025243Y-87643443D01*
X107024263Y-87647598D01*
X106997131Y-87733529D01*
X106962099Y-87812880D01*
X106919416Y-87885414D01*
X106869329Y-87950895D01*
X106812089Y-88009086D01*
X106747942Y-88059752D01*
X106677138Y-88102656D01*
X106599926Y-88137561D01*
X106516553Y-88164232D01*
X106469439Y-88175051D01*
X106436789Y-88180184D01*
X106397289Y-88184196D01*
X106353568Y-88187016D01*
X106308256Y-88188571D01*
X106263982Y-88188791D01*
X106223376Y-88187604D01*
X106189068Y-88184939D01*
X106175142Y-88183037D01*
X106099778Y-88166605D01*
X106032032Y-88143469D01*
X105972011Y-88113697D01*
X105919819Y-88077357D01*
X105875561Y-88034517D01*
X105839342Y-87985245D01*
X105822569Y-87954784D01*
X105802919Y-87909772D01*
X105788585Y-87864560D01*
X105779478Y-87817725D01*
X105775510Y-87767841D01*
X105776592Y-87713483D01*
X105782634Y-87653228D01*
X105793547Y-87585650D01*
X105798054Y-87562244D01*
X105812229Y-87491027D01*
X106023467Y-87491027D01*
X106076959Y-87491077D01*
X106120948Y-87491244D01*
X106156291Y-87491559D01*
X106183843Y-87492049D01*
X106204461Y-87492744D01*
X106219000Y-87493672D01*
X106228316Y-87494862D01*
X106233266Y-87496342D01*
X106234706Y-87498120D01*
X106233698Y-87505718D01*
X106230953Y-87521215D01*
X106226885Y-87542376D01*
X106221912Y-87566966D01*
X106221757Y-87567713D01*
X106213007Y-87618155D01*
X106209537Y-87660651D01*
X106211481Y-87696243D01*
X106218969Y-87725974D01*
X106232136Y-87750887D01*
X106247321Y-87768507D01*
X106269780Y-87785752D01*
X106295922Y-87796910D01*
X106327742Y-87802594D01*
X106361602Y-87803562D01*
X106413510Y-87797980D01*
X106460258Y-87783452D01*
X106501757Y-87760063D01*
X106537918Y-87727899D01*
X106568654Y-87687046D01*
X106593875Y-87637589D01*
X106613494Y-87579614D01*
X106619946Y-87553180D01*
X106622788Y-87539943D01*
X106627565Y-87517318D01*
X106634120Y-87486063D01*
X106642296Y-87446935D01*
X106651934Y-87400691D01*
X106662879Y-87348089D01*
X106674972Y-87289887D01*
X106688055Y-87226841D01*
X106701972Y-87159709D01*
X106716564Y-87089249D01*
X106731674Y-87016218D01*
X106744874Y-86952365D01*
X106760057Y-86878912D01*
X106774687Y-86808182D01*
X106788622Y-86740851D01*
X106801722Y-86677594D01*
X106813848Y-86619090D01*
X106824859Y-86566013D01*
X106834614Y-86519040D01*
X106842973Y-86478849D01*
X106849795Y-86446114D01*
X106854941Y-86421514D01*
X106858269Y-86405724D01*
X106859630Y-86399459D01*
X106862542Y-86387805D01*
X107074436Y-86387805D01*
X107286330Y-86387805D01*
X107283599Y-86399459D01*
G37*
G36*
X110037904Y-86435715D02*
G01*
X110035738Y-86446364D01*
X110031639Y-86466354D01*
X110025773Y-86494884D01*
X110018305Y-86531149D01*
X110009400Y-86574348D01*
X109999225Y-86623677D01*
X109987945Y-86678335D01*
X109975724Y-86737518D01*
X109962730Y-86800424D01*
X109949127Y-86866250D01*
X109937215Y-86923878D01*
X109920081Y-87006832D01*
X109903224Y-87088609D01*
X109886771Y-87168582D01*
X109870850Y-87246125D01*
X109855587Y-87320613D01*
X109841110Y-87391418D01*
X109827546Y-87457915D01*
X109815024Y-87519479D01*
X109803669Y-87575481D01*
X109793609Y-87625298D01*
X109784972Y-87668301D01*
X109777884Y-87703866D01*
X109772474Y-87731366D01*
X109768868Y-87750174D01*
X109767194Y-87759666D01*
X109767087Y-87760633D01*
X109772136Y-87761186D01*
X109786755Y-87761787D01*
X109810159Y-87762423D01*
X109841561Y-87763083D01*
X109880172Y-87763753D01*
X109925207Y-87764422D01*
X109975877Y-87765077D01*
X110031395Y-87765705D01*
X110090975Y-87766295D01*
X110153830Y-87766833D01*
X110169006Y-87766951D01*
X110232582Y-87767463D01*
X110293119Y-87768005D01*
X110349822Y-87768566D01*
X110401899Y-87769136D01*
X110448556Y-87769705D01*
X110489002Y-87770261D01*
X110522442Y-87770795D01*
X110548084Y-87771296D01*
X110565135Y-87771755D01*
X110572802Y-87772159D01*
X110573154Y-87772244D01*
X110572647Y-87777635D01*
X110570264Y-87792093D01*
X110566212Y-87814535D01*
X110560695Y-87843880D01*
X110553916Y-87879045D01*
X110546082Y-87918949D01*
X110537395Y-87962510D01*
X110533797Y-87980375D01*
X110524778Y-88025075D01*
X110516432Y-88066531D01*
X110508976Y-88103663D01*
X110502624Y-88135389D01*
X110497595Y-88160628D01*
X110494103Y-88178299D01*
X110492365Y-88187322D01*
X110492210Y-88188264D01*
X110487159Y-88188671D01*
X110472524Y-88189030D01*
X110449077Y-88189344D01*
X110417591Y-88189614D01*
X110378842Y-88189840D01*
X110333602Y-88190024D01*
X110282644Y-88190167D01*
X110226743Y-88190271D01*
X110166673Y-88190336D01*
X110103206Y-88190364D01*
X110037116Y-88190355D01*
X109969177Y-88190312D01*
X109900163Y-88190235D01*
X109830846Y-88190125D01*
X109762002Y-88189984D01*
X109694403Y-88189812D01*
X109628823Y-88189612D01*
X109566035Y-88189383D01*
X109506814Y-88189129D01*
X109451932Y-88188848D01*
X109402164Y-88188543D01*
X109358283Y-88188216D01*
X109321062Y-88187866D01*
X109291276Y-88187495D01*
X109269697Y-88187105D01*
X109257100Y-88186697D01*
X109254007Y-88186368D01*
X109254983Y-88180961D01*
X109257911Y-88165916D01*
X109262686Y-88141750D01*
X109269205Y-88108978D01*
X109277364Y-88068116D01*
X109287061Y-88019679D01*
X109298190Y-87964182D01*
X109310649Y-87902143D01*
X109324334Y-87834076D01*
X109339142Y-87760496D01*
X109354969Y-87681921D01*
X109371710Y-87598864D01*
X109389264Y-87511843D01*
X109407526Y-87421372D01*
X109426392Y-87327968D01*
X109433993Y-87290353D01*
X109614294Y-86398224D01*
X109829861Y-86398194D01*
X110045427Y-86398164D01*
X110037904Y-86435715D01*
G37*
G36*
X111945077Y-86410346D02*
G01*
X112025586Y-86421837D01*
X112101938Y-86439945D01*
X112172983Y-86464578D01*
X112237570Y-86495646D01*
X112269253Y-86514997D01*
X112328082Y-86560084D01*
X112379255Y-86611845D01*
X112422353Y-86669553D01*
X112456958Y-86732483D01*
X112482650Y-86799911D01*
X112499011Y-86871110D01*
X112504699Y-86922974D01*
X112508422Y-86983441D01*
X112300378Y-86983441D01*
X112248348Y-86983416D01*
X112205728Y-86983314D01*
X112171566Y-86983093D01*
X112144913Y-86982713D01*
X112124818Y-86982134D01*
X112110332Y-86981313D01*
X112100504Y-86980212D01*
X112094385Y-86978788D01*
X112091024Y-86977001D01*
X112089471Y-86974810D01*
X112089313Y-86974377D01*
X112085816Y-86965872D01*
X112078978Y-86950677D01*
X112069990Y-86931414D01*
X112065164Y-86921288D01*
X112045803Y-86887804D01*
X112020962Y-86855107D01*
X111992926Y-86825678D01*
X111963977Y-86802003D01*
X111944823Y-86790400D01*
X111919796Y-86778593D01*
X111896671Y-86769995D01*
X111873005Y-86764151D01*
X111846358Y-86760606D01*
X111814289Y-86758906D01*
X111774356Y-86758595D01*
X111774122Y-86758596D01*
X111728166Y-86759706D01*
X111689611Y-86762898D01*
X111655606Y-86768768D01*
X111623300Y-86777913D01*
X111589843Y-86790930D01*
X111564726Y-86802418D01*
X111513068Y-86830547D01*
X111467950Y-86863029D01*
X111425687Y-86902544D01*
X111422504Y-86905893D01*
X111374663Y-86963978D01*
X111333180Y-87029843D01*
X111298280Y-87102923D01*
X111270186Y-87182651D01*
X111249122Y-87268462D01*
X111235312Y-87359788D01*
X111232858Y-87385298D01*
X111230099Y-87460909D01*
X111235097Y-87530602D01*
X111247776Y-87594110D01*
X111268063Y-87651167D01*
X111295883Y-87701505D01*
X111331163Y-87744858D01*
X111333707Y-87747422D01*
X111374104Y-87781764D01*
X111418124Y-87807284D01*
X111468074Y-87825304D01*
X111471125Y-87826127D01*
X111498840Y-87831207D01*
X111533283Y-87834135D01*
X111571051Y-87834911D01*
X111608741Y-87833537D01*
X111642949Y-87830015D01*
X111663994Y-87826033D01*
X111733067Y-87803946D01*
X111798447Y-87772651D01*
X111859022Y-87732917D01*
X111913678Y-87685513D01*
X111961301Y-87631209D01*
X111976410Y-87610264D01*
X112001257Y-87573898D01*
X112202902Y-87573898D01*
X112404548Y-87573898D01*
X112401046Y-87588142D01*
X112395863Y-87604055D01*
X112386917Y-87626447D01*
X112375404Y-87652701D01*
X112362522Y-87680203D01*
X112349465Y-87706337D01*
X112337432Y-87728487D01*
X112334754Y-87733046D01*
X112298808Y-87787159D01*
X112255735Y-87842348D01*
X112208004Y-87895790D01*
X112158085Y-87944661D01*
X112123735Y-87974180D01*
X112045268Y-88030919D01*
X111961307Y-88078990D01*
X111872171Y-88118296D01*
X111778179Y-88148742D01*
X111679649Y-88170233D01*
X111576901Y-88182674D01*
X111470254Y-88185970D01*
X111419330Y-88184357D01*
X111332360Y-88175577D01*
X111251400Y-88158537D01*
X111176658Y-88133413D01*
X111108341Y-88100378D01*
X111046655Y-88059610D01*
X110991807Y-88011282D01*
X110944003Y-87955571D01*
X110903450Y-87892652D01*
X110870354Y-87822701D01*
X110844923Y-87745891D01*
X110831255Y-87685256D01*
X110826919Y-87654710D01*
X110823497Y-87616507D01*
X110821062Y-87573314D01*
X110819686Y-87527800D01*
X110819443Y-87482632D01*
X110820406Y-87440477D01*
X110822647Y-87404004D01*
X110823354Y-87396673D01*
X110839335Y-87286276D01*
X110863506Y-87180508D01*
X110895569Y-87079771D01*
X110935228Y-86984465D01*
X110982187Y-86894989D01*
X111036150Y-86811744D01*
X111096819Y-86735131D01*
X111163899Y-86665549D01*
X111237093Y-86603400D01*
X111316104Y-86549083D01*
X111400636Y-86502999D01*
X111490393Y-86465548D01*
X111520458Y-86455360D01*
X111604489Y-86432389D01*
X111690117Y-86416494D01*
X111776192Y-86407583D01*
X111861562Y-86405564D01*
X111945077Y-86410346D01*
G37*
G36*
X108669182Y-86391445D02*
G01*
X108761853Y-86402248D01*
X108848496Y-86420046D01*
X108928795Y-86444667D01*
X109002433Y-86475939D01*
X109069093Y-86513692D01*
X109128457Y-86557756D01*
X109180209Y-86607959D01*
X109224032Y-86664129D01*
X109259608Y-86726097D01*
X109278058Y-86769132D01*
X109292504Y-86816628D01*
X109303251Y-86871096D01*
X109310051Y-86929743D01*
X109312657Y-86989776D01*
X109310822Y-87048400D01*
X109306403Y-87089620D01*
X109291576Y-87162314D01*
X109268503Y-87236458D01*
X109238349Y-87309166D01*
X109202274Y-87377553D01*
X109170845Y-87425943D01*
X109140285Y-87464962D01*
X109104051Y-87505144D01*
X109064822Y-87543830D01*
X109025277Y-87578362D01*
X108991749Y-87603612D01*
X108923406Y-87646137D01*
X108855857Y-87679165D01*
X108787438Y-87703265D01*
X108716483Y-87719002D01*
X108641327Y-87726944D01*
X108627609Y-87727575D01*
X108582793Y-87728277D01*
X108545758Y-87726382D01*
X108514162Y-87721487D01*
X108485665Y-87713191D01*
X108457925Y-87701093D01*
X108450353Y-87697171D01*
X108419177Y-87676326D01*
X108394382Y-87649743D01*
X108374247Y-87615481D01*
X108370399Y-87607011D01*
X108362891Y-87590613D01*
X108356777Y-87578770D01*
X108353317Y-87573914D01*
X108353224Y-87573898D01*
X108348134Y-87576732D01*
X108336543Y-87584391D01*
X108320328Y-87595606D01*
X108306466Y-87605443D01*
X108244628Y-87644758D01*
X108181891Y-87674909D01*
X108118937Y-87695731D01*
X108056447Y-87707056D01*
X107995101Y-87708720D01*
X107935582Y-87700556D01*
X107925775Y-87698200D01*
X107877337Y-87681299D01*
X107836547Y-87657453D01*
X107803580Y-87626891D01*
X107778611Y-87589845D01*
X107761819Y-87546545D01*
X107753378Y-87497221D01*
X107752345Y-87471386D01*
X107757174Y-87410555D01*
X107758382Y-87405253D01*
X108007282Y-87405253D01*
X108008315Y-87443298D01*
X108017488Y-87475649D01*
X108034691Y-87501947D01*
X108059814Y-87521834D01*
X108064290Y-87524257D01*
X108083262Y-87529873D01*
X108108912Y-87531778D01*
X108138322Y-87530169D01*
X108168576Y-87525244D01*
X108196758Y-87517198D01*
X108202601Y-87514942D01*
X108233183Y-87500519D01*
X108264169Y-87482595D01*
X108292217Y-87463293D01*
X108313988Y-87444735D01*
X108315439Y-87443263D01*
X108324052Y-87431943D01*
X108335357Y-87413658D01*
X108347892Y-87390927D01*
X108360189Y-87366274D01*
X108360241Y-87366163D01*
X108374414Y-87335226D01*
X108389129Y-87301545D01*
X108403784Y-87266666D01*
X108417775Y-87232133D01*
X108430499Y-87199488D01*
X108441353Y-87170276D01*
X108449735Y-87146041D01*
X108455041Y-87128328D01*
X108456688Y-87119220D01*
X108451909Y-87099701D01*
X108438580Y-87083092D01*
X108418213Y-87069838D01*
X108392317Y-87060385D01*
X108362405Y-87055175D01*
X108329986Y-87054654D01*
X108296573Y-87059266D01*
X108274148Y-87065529D01*
X108227019Y-87086695D01*
X108181257Y-87116752D01*
X108138147Y-87154233D01*
X108098976Y-87197671D01*
X108065028Y-87245598D01*
X108037590Y-87296547D01*
X108017948Y-87349050D01*
X108014498Y-87361872D01*
X108007282Y-87405253D01*
X107758382Y-87405253D01*
X107771351Y-87348355D01*
X107794149Y-87285835D01*
X107824845Y-87224046D01*
X107862711Y-87164039D01*
X107907025Y-87106864D01*
X107957059Y-87053571D01*
X108012090Y-87005212D01*
X108071392Y-86962837D01*
X108124350Y-86932443D01*
X108190844Y-86902850D01*
X108256385Y-86882908D01*
X108322634Y-86872245D01*
X108391254Y-86870487D01*
X108399130Y-86870827D01*
X108442453Y-86874922D01*
X108477615Y-86882942D01*
X108506315Y-86895648D01*
X108530256Y-86913798D01*
X108551137Y-86938152D01*
X108551682Y-86938913D01*
X108555725Y-86943349D01*
X108559687Y-86942930D01*
X108565049Y-86936327D01*
X108573290Y-86922214D01*
X108576225Y-86916900D01*
X108593744Y-86885032D01*
X108698727Y-86885032D01*
X108730434Y-86885146D01*
X108758299Y-86885466D01*
X108780781Y-86885954D01*
X108796340Y-86886576D01*
X108803437Y-86887295D01*
X108803711Y-86887471D01*
X108801628Y-86892667D01*
X108795788Y-86905902D01*
X108786804Y-86925823D01*
X108775288Y-86951076D01*
X108761852Y-86980307D01*
X108753892Y-86997535D01*
X108726561Y-87057251D01*
X108699857Y-87116883D01*
X108674383Y-87175015D01*
X108650741Y-87230229D01*
X108629535Y-87281107D01*
X108611368Y-87326233D01*
X108596842Y-87364190D01*
X108591057Y-87380254D01*
X108578219Y-87420166D01*
X108570682Y-87452493D01*
X108568556Y-87478615D01*
X108571951Y-87499912D01*
X108580975Y-87517763D01*
X108595737Y-87533546D01*
X108603703Y-87539912D01*
X108621894Y-87548212D01*
X108647550Y-87552563D01*
X108678555Y-87552956D01*
X108712793Y-87549382D01*
X108748148Y-87541832D01*
X108752692Y-87540565D01*
X108803781Y-87522913D01*
X108848104Y-87500621D01*
X108888858Y-87471891D01*
X108913856Y-87449945D01*
X108966519Y-87393780D01*
X109010219Y-87332695D01*
X109045103Y-87266404D01*
X109071315Y-87194620D01*
X109088999Y-87117057D01*
X109091930Y-87097981D01*
X109095909Y-87066921D01*
X109097965Y-87041917D01*
X109098206Y-87018871D01*
X109096741Y-86993681D01*
X109095141Y-86976363D01*
X109084326Y-86908398D01*
X109065964Y-86847071D01*
X109039714Y-86791576D01*
X109005234Y-86741111D01*
X108985982Y-86718786D01*
X108939961Y-86676452D01*
X108886538Y-86640511D01*
X108826491Y-86611001D01*
X108760600Y-86587960D01*
X108689644Y-86571427D01*
X108614401Y-86561439D01*
X108535652Y-86558036D01*
X108454174Y-86561257D01*
X108370748Y-86571138D01*
X108286151Y-86587719D01*
X108201163Y-86611039D01*
X108116564Y-86641135D01*
X108044922Y-86672367D01*
X107953067Y-86720808D01*
X107867732Y-86775550D01*
X107789276Y-86836084D01*
X107718061Y-86901896D01*
X107654447Y-86972474D01*
X107598797Y-87047307D01*
X107551471Y-87125882D01*
X107512829Y-87207689D01*
X107483233Y-87292214D01*
X107463044Y-87378947D01*
X107452623Y-87467374D01*
X107451184Y-87514335D01*
X107454380Y-87580461D01*
X107464317Y-87640020D01*
X107481406Y-87694649D01*
X107506062Y-87745983D01*
X107512454Y-87756849D01*
X107531170Y-87783583D01*
X107555870Y-87813075D01*
X107583841Y-87842456D01*
X107612370Y-87868854D01*
X107635723Y-87887296D01*
X107696233Y-87924266D01*
X107763994Y-87954839D01*
X107837930Y-87978782D01*
X107916967Y-87995862D01*
X108000030Y-88005847D01*
X108086044Y-88008502D01*
X108172564Y-88003729D01*
X108213177Y-87999123D01*
X108250236Y-87993352D01*
X108286613Y-87985775D01*
X108325179Y-87975751D01*
X108368804Y-87962639D01*
X108396177Y-87953820D01*
X108424724Y-87944697D01*
X108450052Y-87937051D01*
X108470454Y-87931362D01*
X108484219Y-87928109D01*
X108489443Y-87927624D01*
X108492840Y-87933260D01*
X108497931Y-87947107D01*
X108504107Y-87967277D01*
X108510760Y-87991879D01*
X108512957Y-88000652D01*
X108519992Y-88030264D01*
X108524373Y-88051424D01*
X108526314Y-88065633D01*
X108526031Y-88074392D01*
X108524102Y-88078796D01*
X108513792Y-88086257D01*
X108494668Y-88095236D01*
X108468096Y-88105325D01*
X108435440Y-88116115D01*
X108398065Y-88127198D01*
X108357337Y-88138165D01*
X108314620Y-88148607D01*
X108271279Y-88158116D01*
X108236561Y-88164871D01*
X108204754Y-88169386D01*
X108164827Y-88173061D01*
X108118989Y-88175858D01*
X108069447Y-88177742D01*
X108018409Y-88178676D01*
X107968083Y-88178623D01*
X107920678Y-88177546D01*
X107878401Y-88175409D01*
X107843460Y-88172176D01*
X107838121Y-88171475D01*
X107745448Y-88154499D01*
X107659403Y-88130390D01*
X107580239Y-88099403D01*
X107508207Y-88061794D01*
X107443558Y-88017818D01*
X107386545Y-87967732D01*
X107337419Y-87911790D01*
X107296431Y-87850249D01*
X107263834Y-87783364D01*
X107239879Y-87711392D01*
X107224817Y-87634587D01*
X107218901Y-87553206D01*
X107218817Y-87542176D01*
X107223557Y-87460379D01*
X107237465Y-87376040D01*
X107260007Y-87290252D01*
X107290651Y-87204110D01*
X107328865Y-87118709D01*
X107374116Y-87035143D01*
X107425873Y-86954507D01*
X107483602Y-86877895D01*
X107546771Y-86806402D01*
X107603532Y-86751209D01*
X107688557Y-86681074D01*
X107780884Y-86617481D01*
X107879479Y-86560818D01*
X107983314Y-86511471D01*
X108091354Y-86469829D01*
X108202571Y-86436278D01*
X108315931Y-86411207D01*
X108430404Y-86395003D01*
X108544958Y-86388054D01*
X108570801Y-86387805D01*
X108669182Y-86391445D01*
G37*
G36*
X110072090Y-85165667D02*
G01*
X110249400Y-85178073D01*
X110422728Y-85199881D01*
X110592011Y-85231096D01*
X110757183Y-85271720D01*
X110918181Y-85321759D01*
X111074940Y-85381215D01*
X111082667Y-85384435D01*
X111195022Y-85435395D01*
X111308052Y-85494205D01*
X111420042Y-85559724D01*
X111529276Y-85630812D01*
X111634041Y-85706328D01*
X111732620Y-85785131D01*
X111823301Y-85866080D01*
X111859170Y-85900997D01*
X111897254Y-85940219D01*
X111936293Y-85982454D01*
X111975211Y-86026392D01*
X112012935Y-86070722D01*
X112048389Y-86114133D01*
X112080498Y-86155314D01*
X112108187Y-86192956D01*
X112130382Y-86225746D01*
X112143509Y-86247696D01*
X112160692Y-86279037D01*
X111451252Y-86279037D01*
X110741812Y-86279037D01*
X110725976Y-86250977D01*
X110704380Y-86216519D01*
X110676062Y-86177182D01*
X110642403Y-86134538D01*
X110604785Y-86090161D01*
X110564590Y-86045623D01*
X110523199Y-86002498D01*
X110481994Y-85962358D01*
X110442357Y-85926777D01*
X110437826Y-85922934D01*
X110347931Y-85853824D01*
X110250189Y-85791253D01*
X110144861Y-85735314D01*
X110032206Y-85686097D01*
X109912486Y-85643695D01*
X109785958Y-85608197D01*
X109652885Y-85579697D01*
X109513526Y-85558284D01*
X109368142Y-85544051D01*
X109356366Y-85543232D01*
X109315565Y-85541183D01*
X109266560Y-85539871D01*
X109211476Y-85539264D01*
X109152440Y-85539329D01*
X109091578Y-85540035D01*
X109031016Y-85541349D01*
X108972879Y-85543241D01*
X108919294Y-85545677D01*
X108872387Y-85548626D01*
X108845146Y-85550931D01*
X108682385Y-85569438D01*
X108519950Y-85593511D01*
X108356272Y-85623462D01*
X108189782Y-85659607D01*
X108018911Y-85702258D01*
X107842923Y-85751486D01*
X107790368Y-85767131D01*
X107741452Y-85782178D01*
X107694105Y-85797325D01*
X107646257Y-85813265D01*
X107595836Y-85830694D01*
X107540772Y-85850307D01*
X107478993Y-85872801D01*
X107451875Y-85882783D01*
X107403452Y-85900636D01*
X107364076Y-85915089D01*
X107333083Y-85926345D01*
X107309811Y-85934610D01*
X107293595Y-85940089D01*
X107283772Y-85942985D01*
X107279677Y-85943504D01*
X107280648Y-85941851D01*
X107286019Y-85938229D01*
X107295129Y-85932845D01*
X107301671Y-85929104D01*
X107362796Y-85895385D01*
X107432250Y-85858927D01*
X107508586Y-85820407D01*
X107590354Y-85780505D01*
X107676105Y-85739899D01*
X107764391Y-85699268D01*
X107853763Y-85659290D01*
X107942772Y-85620644D01*
X108029970Y-85584008D01*
X108094127Y-85557931D01*
X108307720Y-85476516D01*
X108517975Y-85404467D01*
X108724826Y-85341786D01*
X108928209Y-85288478D01*
X109128061Y-85244547D01*
X109324316Y-85209995D01*
X109516911Y-85184828D01*
X109705781Y-85169048D01*
X109890862Y-85162660D01*
X110072090Y-85165667D01*
G37*
G36*
X107265415Y-85950142D02*
G01*
X107262826Y-85952732D01*
X107260236Y-85950142D01*
X107262826Y-85947552D01*
X107265415Y-85950142D01*
G37*
G04 #@! TO.C,U2*
D12*
X122500000Y-57965000D02*
G75*
G02*
X120500000Y-57965000I-1000000J0D01*
G01*
X123750000Y-68245000D02*
X123750000Y-57965000D01*
X123750000Y-57965000D02*
X122500000Y-57965000D01*
X120500000Y-57965000D02*
X119250000Y-57965000D01*
X119250000Y-68245000D02*
X123750000Y-68245000D01*
X119250000Y-57965000D02*
X119250000Y-68245000D01*
G04 #@! TO.C,RV1*
X120830000Y-72890000D02*
X120830000Y-78110000D01*
X120830000Y-72890000D02*
X122950000Y-72890000D01*
X120830000Y-78110000D02*
X130750000Y-78110000D01*
X123650000Y-72890000D02*
X130750000Y-72890000D01*
X130750000Y-72890000D02*
X130750000Y-78110000D01*
X123250000Y-72890000D02*
X123010000Y-72560000D01*
X123490000Y-72560000D01*
X123250000Y-72890000D01*
G36*
X123250000Y-72890000D02*
G01*
X123010000Y-72560000D01*
X123490000Y-72560000D01*
X123250000Y-72890000D01*
G37*
G04 #@! TO.C,R2*
X128880000Y-66520000D02*
X128880000Y-59980000D01*
X129210000Y-66520000D02*
X128880000Y-66520000D01*
X131290000Y-66520000D02*
X131620000Y-66520000D01*
X131620000Y-66520000D02*
X131620000Y-59980000D01*
X128880000Y-59980000D02*
X129210000Y-59980000D01*
X131620000Y-59980000D02*
X131290000Y-59980000D01*
G04 #@! TO.C,R1*
X111730000Y-74130000D02*
X118270000Y-74130000D01*
X111730000Y-74460000D02*
X111730000Y-74130000D01*
X111730000Y-76540000D02*
X111730000Y-76870000D01*
X111730000Y-76870000D02*
X118270000Y-76870000D01*
X118270000Y-74130000D02*
X118270000Y-74460000D01*
X118270000Y-76870000D02*
X118270000Y-76540000D01*
G04 #@! TO.C,J1*
X116250000Y-51170000D02*
X113650000Y-51170000D01*
X116250000Y-51170000D02*
X116250000Y-53830000D01*
X113650000Y-51170000D02*
X113650000Y-53830000D01*
X118850000Y-52500000D02*
X118850000Y-53830000D01*
X118850000Y-53830000D02*
X117520000Y-53830000D01*
X116250000Y-53830000D02*
X113650000Y-53830000D01*
G04 #@! TO.C,D10*
X129210000Y-51455000D02*
X129210000Y-54545000D01*
X129210000Y-51455170D02*
G75*
G02*
X134760000Y-53000000I2560000J-1544830D01*
G01*
X134760000Y-53000000D02*
G75*
G02*
X129210000Y-54544830I-2990000J0D01*
G01*
X134270000Y-53000000D02*
G75*
G02*
X129270000Y-53000000I-2500000J0D01*
G01*
X129270000Y-53000000D02*
G75*
G02*
X134270000Y-53000000I2500000J0D01*
G01*
G04 #@! TO.C,D9*
X135670000Y-59955000D02*
X135670000Y-63045000D01*
X135670000Y-59955170D02*
G75*
G02*
X141220000Y-61500000I2560000J-1544830D01*
G01*
X141220000Y-61500000D02*
G75*
G02*
X135670000Y-63044830I-2990000J0D01*
G01*
X140730000Y-61500000D02*
G75*
G02*
X135730000Y-61500000I-2500000J0D01*
G01*
X135730000Y-61500000D02*
G75*
G02*
X140730000Y-61500000I2500000J0D01*
G01*
G04 #@! TO.C,D8*
X136935000Y-69955000D02*
X136935000Y-73045000D01*
X136935000Y-69955170D02*
G75*
G02*
X142485000Y-71500000I2560000J-1544830D01*
G01*
X142485000Y-71500000D02*
G75*
G02*
X136935000Y-73044830I-2990000J0D01*
G01*
X141995000Y-71500000D02*
G75*
G02*
X136995000Y-71500000I-2500000J0D01*
G01*
X136995000Y-71500000D02*
G75*
G02*
X141995000Y-71500000I2500000J0D01*
G01*
G04 #@! TO.C,D7*
X130710000Y-82955000D02*
X130710000Y-86045000D01*
X130710000Y-82955170D02*
G75*
G02*
X136260000Y-84500000I2560000J-1544830D01*
G01*
X136260000Y-84500000D02*
G75*
G02*
X130710000Y-86044830I-2990000J0D01*
G01*
X135770000Y-84500000D02*
G75*
G02*
X130770000Y-84500000I-2500000J0D01*
G01*
X130770000Y-84500000D02*
G75*
G02*
X135770000Y-84500000I2500000J0D01*
G01*
G04 #@! TO.C,D6*
X111170000Y-102955000D02*
X111170000Y-106045000D01*
X111170000Y-102955170D02*
G75*
G02*
X116720000Y-104500000I2560000J-1544830D01*
G01*
X116720000Y-104500000D02*
G75*
G02*
X111170000Y-106044830I-2990000J0D01*
G01*
X116230000Y-104500000D02*
G75*
G02*
X111230000Y-104500000I-2500000J0D01*
G01*
X111230000Y-104500000D02*
G75*
G02*
X116230000Y-104500000I2500000J0D01*
G01*
G04 #@! TO.C,D5*
X91670000Y-102455000D02*
X91670000Y-105545000D01*
X91670000Y-102455170D02*
G75*
G02*
X97220000Y-104000000I2560000J-1544830D01*
G01*
X97220000Y-104000000D02*
G75*
G02*
X91670000Y-105544830I-2990000J0D01*
G01*
X96730000Y-104000000D02*
G75*
G02*
X91730000Y-104000000I-2500000J0D01*
G01*
X91730000Y-104000000D02*
G75*
G02*
X96730000Y-104000000I2500000J0D01*
G01*
G04 #@! TO.C,D4*
X72210000Y-82955000D02*
X72210000Y-86045000D01*
X72210000Y-82955170D02*
G75*
G02*
X77760000Y-84500000I2560000J-1544830D01*
G01*
X77760000Y-84500000D02*
G75*
G02*
X72210000Y-86044830I-2990000J0D01*
G01*
X77270000Y-84500000D02*
G75*
G02*
X72270000Y-84500000I-2500000J0D01*
G01*
X72270000Y-84500000D02*
G75*
G02*
X77270000Y-84500000I2500000J0D01*
G01*
G04 #@! TO.C,D3*
X66170000Y-69955000D02*
X66170000Y-73045000D01*
X66170000Y-69955170D02*
G75*
G02*
X71720000Y-71500000I2560000J-1544830D01*
G01*
X71720000Y-71500000D02*
G75*
G02*
X66170000Y-73044830I-2990000J0D01*
G01*
X71230000Y-71500000D02*
G75*
G02*
X66230000Y-71500000I-2500000J0D01*
G01*
X66230000Y-71500000D02*
G75*
G02*
X71230000Y-71500000I2500000J0D01*
G01*
G04 #@! TO.C,D2*
X68170000Y-59955000D02*
X68170000Y-63045000D01*
X68170000Y-59955170D02*
G75*
G02*
X73720000Y-61500000I2560000J-1544830D01*
G01*
X73720000Y-61500000D02*
G75*
G02*
X68170000Y-63044830I-2990000J0D01*
G01*
X73230000Y-61500000D02*
G75*
G02*
X68230000Y-61500000I-2500000J0D01*
G01*
X68230000Y-61500000D02*
G75*
G02*
X73230000Y-61500000I2500000J0D01*
G01*
G04 #@! TO.C,D1*
X75670000Y-51455000D02*
X75670000Y-54545000D01*
X75670000Y-51455170D02*
G75*
G02*
X81220000Y-53000000I2560000J-1544830D01*
G01*
X81220000Y-53000000D02*
G75*
G02*
X75670000Y-54544830I-2990000J0D01*
G01*
X80730000Y-53000000D02*
G75*
G02*
X75730000Y-53000000I-2500000J0D01*
G01*
X75730000Y-53000000D02*
G75*
G02*
X80730000Y-53000000I2500000J0D01*
G01*
G04 #@! TO.C,C2*
X85605000Y-95255000D02*
X90545000Y-95255000D01*
X85605000Y-95585000D02*
X85605000Y-95255000D01*
X85605000Y-97995000D02*
X85605000Y-97665000D01*
X90545000Y-95255000D02*
X90545000Y-95585000D01*
X90545000Y-97665000D02*
X90545000Y-97995000D01*
X90545000Y-97995000D02*
X85605000Y-97995000D01*
G04 #@! TO.C,C1*
X92725000Y-64740113D02*
X92725000Y-65240113D01*
X92975000Y-64990113D02*
X92475000Y-64990113D01*
X93830000Y-67544888D02*
X88670000Y-67544888D01*
X93830000Y-67584888D02*
X88670000Y-67584888D01*
X93829000Y-67624888D02*
X88671000Y-67624888D01*
X93827000Y-67664888D02*
X88673000Y-67664888D01*
X93825000Y-67704888D02*
X88675000Y-67704888D01*
X93822000Y-67744888D02*
X88678000Y-67744888D01*
X93819000Y-67784888D02*
X92290000Y-67784888D01*
X90210000Y-67784888D02*
X88681000Y-67784888D01*
X93815000Y-67824888D02*
X92290000Y-67824888D01*
X90210000Y-67824888D02*
X88685000Y-67824888D01*
X93810000Y-67864888D02*
X92290000Y-67864888D01*
X90210000Y-67864888D02*
X88690000Y-67864888D01*
X93805000Y-67904888D02*
X92290000Y-67904888D01*
X90210000Y-67904888D02*
X88695000Y-67904888D01*
X93799000Y-67944888D02*
X92290000Y-67944888D01*
X90210000Y-67944888D02*
X88701000Y-67944888D01*
X93793000Y-67984888D02*
X92290000Y-67984888D01*
X90210000Y-67984888D02*
X88707000Y-67984888D01*
X93786000Y-68024888D02*
X92290000Y-68024888D01*
X90210000Y-68024888D02*
X88714000Y-68024888D01*
X93778000Y-68064888D02*
X92290000Y-68064888D01*
X90210000Y-68064888D02*
X88722000Y-68064888D01*
X93769000Y-68104888D02*
X92290000Y-68104888D01*
X90210000Y-68104888D02*
X88731000Y-68104888D01*
X93760000Y-68144888D02*
X92290000Y-68144888D01*
X90210000Y-68144888D02*
X88740000Y-68144888D01*
X93751000Y-68184888D02*
X92290000Y-68184888D01*
X90210000Y-68184888D02*
X88749000Y-68184888D01*
X93740000Y-68224888D02*
X92290000Y-68224888D01*
X90210000Y-68224888D02*
X88760000Y-68224888D01*
X93729000Y-68264888D02*
X92290000Y-68264888D01*
X90210000Y-68264888D02*
X88771000Y-68264888D01*
X93717000Y-68304888D02*
X92290000Y-68304888D01*
X90210000Y-68304888D02*
X88783000Y-68304888D01*
X93705000Y-68344888D02*
X92290000Y-68344888D01*
X90210000Y-68344888D02*
X88795000Y-68344888D01*
X93692000Y-68384888D02*
X92290000Y-68384888D01*
X90210000Y-68384888D02*
X88808000Y-68384888D01*
X93678000Y-68424888D02*
X92290000Y-68424888D01*
X90210000Y-68424888D02*
X88822000Y-68424888D01*
X93663000Y-68464888D02*
X92290000Y-68464888D01*
X90210000Y-68464888D02*
X88837000Y-68464888D01*
X93648000Y-68504888D02*
X92290000Y-68504888D01*
X90210000Y-68504888D02*
X88852000Y-68504888D01*
X93632000Y-68544888D02*
X92290000Y-68544888D01*
X90210000Y-68544888D02*
X88868000Y-68544888D01*
X93615000Y-68584888D02*
X92290000Y-68584888D01*
X90210000Y-68584888D02*
X88885000Y-68584888D01*
X93597000Y-68624888D02*
X92290000Y-68624888D01*
X90210000Y-68624888D02*
X88903000Y-68624888D01*
X93579000Y-68664888D02*
X92290000Y-68664888D01*
X90210000Y-68664888D02*
X88921000Y-68664888D01*
X93559000Y-68704888D02*
X92290000Y-68704888D01*
X90210000Y-68704888D02*
X88941000Y-68704888D01*
X93539000Y-68744888D02*
X92290000Y-68744888D01*
X90210000Y-68744888D02*
X88961000Y-68744888D01*
X93518000Y-68784888D02*
X92290000Y-68784888D01*
X90210000Y-68784888D02*
X88982000Y-68784888D01*
X93496000Y-68824888D02*
X92290000Y-68824888D01*
X90210000Y-68824888D02*
X89004000Y-68824888D01*
X93473000Y-68864888D02*
X92290000Y-68864888D01*
X90210000Y-68864888D02*
X89027000Y-68864888D01*
X93449000Y-68904888D02*
X92290000Y-68904888D01*
X90210000Y-68904888D02*
X89051000Y-68904888D01*
X93425000Y-68944888D02*
X92290000Y-68944888D01*
X90210000Y-68944888D02*
X89075000Y-68944888D01*
X93399000Y-68984888D02*
X92290000Y-68984888D01*
X90210000Y-68984888D02*
X89101000Y-68984888D01*
X93372000Y-69024888D02*
X92290000Y-69024888D01*
X90210000Y-69024888D02*
X89128000Y-69024888D01*
X93344000Y-69064888D02*
X92290000Y-69064888D01*
X90210000Y-69064888D02*
X89156000Y-69064888D01*
X93315000Y-69104888D02*
X92290000Y-69104888D01*
X90210000Y-69104888D02*
X89185000Y-69104888D01*
X93285000Y-69144888D02*
X92290000Y-69144888D01*
X90210000Y-69144888D02*
X89215000Y-69144888D01*
X93253000Y-69184888D02*
X92290000Y-69184888D01*
X90210000Y-69184888D02*
X89247000Y-69184888D01*
X93220000Y-69224888D02*
X92290000Y-69224888D01*
X90210000Y-69224888D02*
X89280000Y-69224888D01*
X93186000Y-69264888D02*
X92290000Y-69264888D01*
X90210000Y-69264888D02*
X89314000Y-69264888D01*
X93151000Y-69304888D02*
X92290000Y-69304888D01*
X90210000Y-69304888D02*
X89349000Y-69304888D01*
X93114000Y-69344888D02*
X92290000Y-69344888D01*
X90210000Y-69344888D02*
X89386000Y-69344888D01*
X93075000Y-69384888D02*
X92290000Y-69384888D01*
X90210000Y-69384888D02*
X89425000Y-69384888D01*
X93035000Y-69424888D02*
X92290000Y-69424888D01*
X90210000Y-69424888D02*
X89465000Y-69424888D01*
X92993000Y-69464888D02*
X92290000Y-69464888D01*
X90210000Y-69464888D02*
X89507000Y-69464888D01*
X92949000Y-69504888D02*
X92290000Y-69504888D01*
X90210000Y-69504888D02*
X89551000Y-69504888D01*
X92902000Y-69544888D02*
X92290000Y-69544888D01*
X90210000Y-69544888D02*
X89598000Y-69544888D01*
X92854000Y-69584888D02*
X92290000Y-69584888D01*
X90210000Y-69584888D02*
X89646000Y-69584888D01*
X92803000Y-69624888D02*
X92290000Y-69624888D01*
X90210000Y-69624888D02*
X89697000Y-69624888D01*
X92749000Y-69664888D02*
X92290000Y-69664888D01*
X90210000Y-69664888D02*
X89751000Y-69664888D01*
X92693000Y-69704888D02*
X92290000Y-69704888D01*
X90210000Y-69704888D02*
X89807000Y-69704888D01*
X92633000Y-69744888D02*
X92290000Y-69744888D01*
X90210000Y-69744888D02*
X89867000Y-69744888D01*
X92569000Y-69784888D02*
X92290000Y-69784888D01*
X90210000Y-69784888D02*
X89931000Y-69784888D01*
X92501000Y-69824888D02*
X92290000Y-69824888D01*
X90210000Y-69824888D02*
X89999000Y-69824888D01*
X92427000Y-69864888D02*
X90073000Y-69864888D01*
X92348000Y-69904888D02*
X90152000Y-69904888D01*
X92261000Y-69944888D02*
X90239000Y-69944888D01*
X92164000Y-69984888D02*
X90336000Y-69984888D01*
X92055000Y-70024888D02*
X90445000Y-70024888D01*
X91927000Y-70064888D02*
X90573000Y-70064888D01*
X91767000Y-70104888D02*
X90733000Y-70104888D01*
X91533000Y-70144888D02*
X90967000Y-70144888D01*
X93870000Y-67544888D02*
G75*
G02*
X88630000Y-67544888I-2620000J0D01*
G01*
X88630000Y-67544888D02*
G75*
G02*
X93870000Y-67544888I2620000J0D01*
G01*
G04 #@! TD*
%LPC*%
D14*
G04 #@! TO.C,U1*
X100440000Y-59295000D03*
D15*
X100440000Y-61835000D03*
X100440000Y-64375000D03*
X100440000Y-66915000D03*
X100440000Y-69455000D03*
X100440000Y-71995000D03*
X100440000Y-74535000D03*
X100440000Y-77075000D03*
X108060000Y-77075000D03*
X108060000Y-74535000D03*
X108060000Y-71995000D03*
X108060000Y-69455000D03*
X108060000Y-66915000D03*
X108060000Y-64375000D03*
X108060000Y-61835000D03*
X108060000Y-59295000D03*
G04 #@! TD*
G04 #@! TO.C,U2*
X125310000Y-59295000D03*
X125310000Y-61835000D03*
X125310000Y-64375000D03*
X125310000Y-66915000D03*
X117690000Y-66915000D03*
X117690000Y-64375000D03*
X117690000Y-61835000D03*
D14*
X117690000Y-59295000D03*
G04 #@! TD*
D16*
G04 #@! TO.C,RV1*
X123250000Y-75500000D03*
D17*
X125790000Y-75500000D03*
X128330000Y-75500000D03*
G04 #@! TD*
D18*
G04 #@! TO.C,R2*
X130250000Y-67060000D03*
X130250000Y-59440000D03*
G04 #@! TD*
G04 #@! TO.C,R1*
X111190000Y-75500000D03*
X118810000Y-75500000D03*
G04 #@! TD*
D19*
G04 #@! TO.C,J1*
X117520000Y-52500000D03*
D20*
X114980000Y-52500000D03*
G04 #@! TD*
D21*
G04 #@! TO.C,D10*
X130500000Y-53000000D03*
D22*
X133040000Y-53000000D03*
G04 #@! TD*
D21*
G04 #@! TO.C,D9*
X136960000Y-61500000D03*
D22*
X139500000Y-61500000D03*
G04 #@! TD*
D21*
G04 #@! TO.C,D8*
X138225000Y-71500000D03*
D22*
X140765000Y-71500000D03*
G04 #@! TD*
D21*
G04 #@! TO.C,D7*
X132000000Y-84500000D03*
D22*
X134540000Y-84500000D03*
G04 #@! TD*
D21*
G04 #@! TO.C,D6*
X112460000Y-104500000D03*
D22*
X115000000Y-104500000D03*
G04 #@! TD*
D21*
G04 #@! TO.C,D5*
X92960000Y-104000000D03*
D22*
X95500000Y-104000000D03*
G04 #@! TD*
D21*
G04 #@! TO.C,D4*
X73500000Y-84500000D03*
D22*
X76040000Y-84500000D03*
G04 #@! TD*
D21*
G04 #@! TO.C,D3*
X67460000Y-71500000D03*
D22*
X70000000Y-71500000D03*
G04 #@! TD*
D21*
G04 #@! TO.C,D2*
X69460000Y-61500000D03*
D22*
X72000000Y-61500000D03*
G04 #@! TD*
D21*
G04 #@! TO.C,D1*
X76960000Y-53000000D03*
D22*
X79500000Y-53000000D03*
G04 #@! TD*
D18*
G04 #@! TO.C,C2*
X85575000Y-96625000D03*
X90575000Y-96625000D03*
G04 #@! TD*
D23*
G04 #@! TO.C,C1*
X91250000Y-66294888D03*
D18*
X91250000Y-68794888D03*
G04 #@! TD*
%LPD*%
M02*
