G04 #@! TF.GenerationSoftware,KiCad,Pcbnew,10.0.3*
G04 #@! TF.CreationDate,2026-06-13T11:52:46+05:30*
G04 #@! TF.ProjectId,project,70726f6a-6563-4742-9e6b-696361645f70,rev?*
G04 #@! TF.SameCoordinates,Original*
G04 #@! TF.FileFunction,Profile,NP*
%FSLAX46Y46*%
G04 Gerber Fmt 4.6, Leading zero omitted, Abs format (unit mm)*
G04 Created by KiCad (PCBNEW 10.0.3) date 2026-06-13 11:52:46*
%MOMM*%
%LPD*%
G01*
G04 APERTURE LIST*
G04 #@! TA.AperFunction,Profile*
%ADD10C,0.000000*%
G04 #@! TD*
G04 APERTURE END LIST*
D10*
X104324000Y-55518000D02*
X104200000Y-55700000D01*
X106324000Y-52518000D02*
X104324000Y-55518000D01*
X106624590Y-52120492D02*
X106324000Y-52518000D01*
X107100000Y-51500000D02*
X106624590Y-52120492D01*
X108300000Y-50300000D02*
X107100000Y-51500000D01*
X108982000Y-49776000D02*
X108300000Y-50300000D01*
X109318000Y-49524000D02*
X108982000Y-49776000D01*
X111490000Y-48080000D02*
X109318000Y-49524000D01*
X112110000Y-47720000D02*
X111490000Y-48080000D01*
X114390000Y-46770000D02*
X112110000Y-47720000D01*
X115408824Y-46435294D02*
X114390000Y-46770000D01*
X117893243Y-45859459D02*
X115408824Y-46435294D01*
X120300000Y-45500000D02*
X117893243Y-45859459D01*
X123600000Y-45500000D02*
X120300000Y-45500000D01*
X125893243Y-45840540D02*
X123600000Y-45500000D01*
X128410000Y-46470000D02*
X125893243Y-45840540D01*
X129190000Y-46730000D02*
X128410000Y-46470000D01*
X131010000Y-47480000D02*
X129190000Y-46730000D01*
X132990000Y-48520000D02*
X131010000Y-47480000D01*
X135082000Y-49924000D02*
X132990000Y-48520000D01*
X136500000Y-51000000D02*
X135082000Y-49924000D01*
X138400000Y-52900000D02*
X136500000Y-51000000D01*
X139323077Y-54084615D02*
X138400000Y-52900000D01*
X140023077Y-55084615D02*
X139323077Y-54084615D01*
X141520000Y-57590000D02*
X140023077Y-55084615D01*
X142480000Y-59810000D02*
X141520000Y-57590000D01*
X143064706Y-61608823D02*
X142480000Y-59810000D01*
X143338462Y-62692308D02*
X143064706Y-61608823D01*
X143754918Y-65204098D02*
X143338462Y-62692308D01*
X143845082Y-66195902D02*
X143754918Y-65204098D01*
X143900000Y-69500000D02*
X143845082Y-66195902D01*
X143754483Y-70696207D02*
X143900000Y-69500000D01*
X143264706Y-73691176D02*
X143754483Y-70696207D01*
X142635294Y-76108823D02*
X143264706Y-73691176D01*
X141720000Y-78810000D02*
X142635294Y-76108823D01*
X141080000Y-80390000D02*
X141720000Y-78810000D01*
X139476923Y-83684615D02*
X141080000Y-80390000D01*
X138976923Y-84584615D02*
X139476923Y-83684615D01*
X136576000Y-88382000D02*
X138976923Y-84584615D01*
X135224000Y-90218000D02*
X136576000Y-88382000D01*
X132575172Y-93477931D02*
X135224000Y-90218000D01*
X130800000Y-95500000D02*
X132575172Y-93477931D01*
X126400000Y-99900000D02*
X130800000Y-95500000D01*
X125122376Y-101024862D02*
X126400000Y-99900000D01*
X122678824Y-103175294D02*
X125122376Y-101024862D01*
X118018000Y-106924000D02*
X122678824Y-103175294D01*
X115382000Y-108876000D02*
X118018000Y-106924000D01*
X110515385Y-112223077D02*
X115382000Y-108876000D01*
X110284615Y-112376923D02*
X110515385Y-112223077D01*
X104600000Y-116000000D02*
X110284615Y-112376923D01*
X103800000Y-116000000D02*
X104600000Y-116000000D01*
X103690000Y-115920000D02*
X103800000Y-116000000D01*
X103610000Y-115880000D02*
X103690000Y-115920000D01*
X97915385Y-112276923D02*
X103610000Y-115880000D01*
X97615385Y-112076923D02*
X97915385Y-112276923D01*
X92818000Y-108776000D02*
X97615385Y-112076923D01*
X89682000Y-106424000D02*
X92818000Y-108776000D01*
X85321177Y-102875294D02*
X89682000Y-106424000D01*
X82723278Y-100575059D02*
X85321177Y-102875294D01*
X81200000Y-99200000D02*
X82723278Y-100575059D01*
X78300000Y-96300000D02*
X81200000Y-99200000D01*
X76175221Y-93921681D02*
X78300000Y-96300000D01*
X73276000Y-90418000D02*
X76175221Y-93921681D01*
X71724000Y-88282000D02*
X73276000Y-90418000D01*
X69680000Y-85110000D02*
X71724000Y-88282000D01*
X68923077Y-83784615D02*
X69680000Y-85110000D01*
X67380000Y-80610000D02*
X68923077Y-83784615D01*
X66820000Y-79290000D02*
X67380000Y-80610000D01*
X65735294Y-76191176D02*
X66820000Y-79290000D01*
X65135294Y-73791176D02*
X65735294Y-76191176D01*
X64645082Y-70895902D02*
X65135294Y-73791176D01*
X64500000Y-69800000D02*
X64645082Y-70895902D01*
X64500000Y-66000000D02*
X64500000Y-69800000D01*
X65138462Y-62207692D02*
X64500000Y-66000000D01*
X65264706Y-61791176D02*
X65138462Y-62207692D01*
X65980000Y-59490000D02*
X65264706Y-61791176D01*
X66920000Y-57410000D02*
X65980000Y-59490000D01*
X68024000Y-55518000D02*
X66920000Y-57410000D01*
X68523077Y-54815385D02*
X68024000Y-55518000D01*
X70300000Y-52500000D02*
X68523077Y-54815385D01*
X72280488Y-50675610D02*
X70300000Y-52500000D01*
X72719512Y-50324390D02*
X72280488Y-50675610D01*
X74784615Y-48876923D02*
X72719512Y-50324390D01*
X75015385Y-48723077D02*
X74784615Y-48876923D01*
X76890000Y-47680000D02*
X75015385Y-48723077D01*
X77010000Y-47620000D02*
X76890000Y-47680000D01*
X79110000Y-46730000D02*
X77010000Y-47620000D01*
X80008824Y-46435294D02*
X79110000Y-46730000D01*
X82506757Y-45840540D02*
X80008824Y-46435294D01*
X84700000Y-45500000D02*
X82506757Y-45840540D01*
X88100000Y-45500000D02*
X84700000Y-45500000D01*
X90393243Y-45840540D02*
X88100000Y-45500000D01*
X93008824Y-46464706D02*
X90393243Y-45840540D01*
X93890000Y-46730000D02*
X93008824Y-46464706D01*
X96190000Y-47720000D02*
X93890000Y-46730000D01*
X96590000Y-47920000D02*
X96190000Y-47720000D01*
X98482000Y-49124000D02*
X96590000Y-47920000D01*
X99618000Y-49976000D02*
X98482000Y-49124000D01*
X101600000Y-51900000D02*
X99618000Y-49976000D01*
X104200000Y-55700000D02*
X101600000Y-51900000D01*
M02*
