%TF.GenerationSoftware,KiCad,Pcbnew,10.0.3*%
%TF.CreationDate,2026-06-13T11:52:46+05:30*%
%TF.ProjectId,project,70726f6a-6563-4742-9e6b-696361645f70,rev?*%
%TF.SameCoordinates,Original*%
%TF.FileFunction,Drillmap*%
%TF.FilePolarity,Positive*%
%FSLAX45Y45*%
G04 Gerber Fmt 4.5, Leading zero omitted, Abs format (unit mm)*
G04 Created by KiCad (PCBNEW 10.0.3) date 2026-06-13 11:52:46*
%MOMM*%
%LPD*%
G01*
G04 APERTURE LIST*
%ADD10C,0.000000*%
%ADD11C,0.200000*%
G04 APERTURE END LIST*
D10*
X10432400Y-5551800D02*
X10420000Y-5570000D01*
X10632400Y-5251800D02*
X10432400Y-5551800D01*
X10662459Y-5212049D02*
X10632400Y-5251800D01*
X10710000Y-5150000D02*
X10662459Y-5212049D01*
X10830000Y-5030000D02*
X10710000Y-5150000D01*
X10898200Y-4977600D02*
X10830000Y-5030000D01*
X10931800Y-4952400D02*
X10898200Y-4977600D01*
X11149000Y-4808000D02*
X10931800Y-4952400D01*
X11211000Y-4772000D02*
X11149000Y-4808000D01*
X11439000Y-4677000D02*
X11211000Y-4772000D01*
X11540882Y-4643529D02*
X11439000Y-4677000D01*
X11789324Y-4585946D02*
X11540882Y-4643529D01*
X12030000Y-4550000D02*
X11789324Y-4585946D01*
X12360000Y-4550000D02*
X12030000Y-4550000D01*
X12589324Y-4584054D02*
X12360000Y-4550000D01*
X12841000Y-4647000D02*
X12589324Y-4584054D01*
X12919000Y-4673000D02*
X12841000Y-4647000D01*
X13101000Y-4748000D02*
X12919000Y-4673000D01*
X13299000Y-4852000D02*
X13101000Y-4748000D01*
X13508200Y-4992400D02*
X13299000Y-4852000D01*
X13650000Y-5100000D02*
X13508200Y-4992400D01*
X13840000Y-5290000D02*
X13650000Y-5100000D01*
X13932308Y-5408462D02*
X13840000Y-5290000D01*
X14002308Y-5508462D02*
X13932308Y-5408462D01*
X14152000Y-5759000D02*
X14002308Y-5508462D01*
X14248000Y-5981000D02*
X14152000Y-5759000D01*
X14306471Y-6160882D02*
X14248000Y-5981000D01*
X14333846Y-6269231D02*
X14306471Y-6160882D01*
X14375492Y-6520410D02*
X14333846Y-6269231D01*
X14384508Y-6619590D02*
X14375492Y-6520410D01*
X14390000Y-6950000D02*
X14384508Y-6619590D01*
X14375448Y-7069621D02*
X14390000Y-6950000D01*
X14326471Y-7369118D02*
X14375448Y-7069621D01*
X14263529Y-7610882D02*
X14326471Y-7369118D01*
X14172000Y-7881000D02*
X14263529Y-7610882D01*
X14108000Y-8039000D02*
X14172000Y-7881000D01*
X13947692Y-8368461D02*
X14108000Y-8039000D01*
X13897692Y-8458462D02*
X13947692Y-8368461D01*
X13657600Y-8838200D02*
X13897692Y-8458462D01*
X13522400Y-9021800D02*
X13657600Y-8838200D01*
X13257517Y-9347793D02*
X13522400Y-9021800D01*
X13080000Y-9550000D02*
X13257517Y-9347793D01*
X12640000Y-9990000D02*
X13080000Y-9550000D01*
X12512238Y-10102486D02*
X12640000Y-9990000D01*
X12267882Y-10317529D02*
X12512238Y-10102486D01*
X11801800Y-10692400D02*
X12267882Y-10317529D01*
X11538200Y-10887600D02*
X11801800Y-10692400D01*
X11051539Y-11222308D02*
X11538200Y-10887600D01*
X11028462Y-11237692D02*
X11051539Y-11222308D01*
X10460000Y-11600000D02*
X11028462Y-11237692D01*
X10380000Y-11600000D02*
X10460000Y-11600000D01*
X10369000Y-11592000D02*
X10380000Y-11600000D01*
X10361000Y-11588000D02*
X10369000Y-11592000D01*
X9791539Y-11227692D02*
X10361000Y-11588000D01*
X9761539Y-11207692D02*
X9791539Y-11227692D01*
X9281800Y-10877600D02*
X9761539Y-11207692D01*
X8968200Y-10642400D02*
X9281800Y-10877600D01*
X8532118Y-10287529D02*
X8968200Y-10642400D01*
X8272328Y-10057506D02*
X8532118Y-10287529D01*
X8120000Y-9920000D02*
X8272328Y-10057506D01*
X7830000Y-9630000D02*
X8120000Y-9920000D01*
X7617522Y-9392168D02*
X7830000Y-9630000D01*
X7327600Y-9041800D02*
X7617522Y-9392168D01*
X7172400Y-8828200D02*
X7327600Y-9041800D01*
X6968000Y-8511000D02*
X7172400Y-8828200D01*
X6892308Y-8378461D02*
X6968000Y-8511000D01*
X6738000Y-8061000D02*
X6892308Y-8378461D01*
X6682000Y-7929000D02*
X6738000Y-8061000D01*
X6573529Y-7619118D02*
X6682000Y-7929000D01*
X6513529Y-7379118D02*
X6573529Y-7619118D01*
X6464508Y-7089590D02*
X6513529Y-7379118D01*
X6450000Y-6980000D02*
X6464508Y-7089590D01*
X6450000Y-6600000D02*
X6450000Y-6980000D01*
X6513846Y-6220769D02*
X6450000Y-6600000D01*
X6526471Y-6179118D02*
X6513846Y-6220769D01*
X6598000Y-5949000D02*
X6526471Y-6179118D01*
X6692000Y-5741000D02*
X6598000Y-5949000D01*
X6802400Y-5551800D02*
X6692000Y-5741000D01*
X6852308Y-5481539D02*
X6802400Y-5551800D01*
X7030000Y-5250000D02*
X6852308Y-5481539D01*
X7228049Y-5067561D02*
X7030000Y-5250000D01*
X7271951Y-5032439D02*
X7228049Y-5067561D01*
X7478461Y-4887692D02*
X7271951Y-5032439D01*
X7501538Y-4872308D02*
X7478461Y-4887692D01*
X7689000Y-4768000D02*
X7501538Y-4872308D01*
X7701000Y-4762000D02*
X7689000Y-4768000D01*
X7911000Y-4673000D02*
X7701000Y-4762000D01*
X8000882Y-4643529D02*
X7911000Y-4673000D01*
X8250676Y-4584054D02*
X8000882Y-4643529D01*
X8470000Y-4550000D02*
X8250676Y-4584054D01*
X8810000Y-4550000D02*
X8470000Y-4550000D01*
X9039324Y-4584054D02*
X8810000Y-4550000D01*
X9300882Y-4646471D02*
X9039324Y-4584054D01*
X9389000Y-4673000D02*
X9300882Y-4646471D01*
X9619000Y-4772000D02*
X9389000Y-4673000D01*
X9659000Y-4792000D02*
X9619000Y-4772000D01*
X9848200Y-4912400D02*
X9659000Y-4792000D01*
X9961800Y-4997600D02*
X9848200Y-4912400D01*
X10160000Y-5190000D02*
X9961800Y-4997600D01*
X10420000Y-5570000D02*
X10160000Y-5190000D01*
D11*
X6710777Y-11911484D02*
X6710777Y-11711484D01*
X6710777Y-11711484D02*
X6758396Y-11711484D01*
X6758396Y-11711484D02*
X6786967Y-11721008D01*
X6786967Y-11721008D02*
X6806015Y-11740055D01*
X6806015Y-11740055D02*
X6815539Y-11759103D01*
X6815539Y-11759103D02*
X6825062Y-11797198D01*
X6825062Y-11797198D02*
X6825062Y-11825769D01*
X6825062Y-11825769D02*
X6815539Y-11863865D01*
X6815539Y-11863865D02*
X6806015Y-11882912D01*
X6806015Y-11882912D02*
X6786967Y-11901960D01*
X6786967Y-11901960D02*
X6758396Y-11911484D01*
X6758396Y-11911484D02*
X6710777Y-11911484D01*
X6910777Y-11911484D02*
X6910777Y-11778150D01*
X6910777Y-11816246D02*
X6920301Y-11797198D01*
X6920301Y-11797198D02*
X6929824Y-11787674D01*
X6929824Y-11787674D02*
X6948872Y-11778150D01*
X6948872Y-11778150D02*
X6967920Y-11778150D01*
X7034586Y-11911484D02*
X7034586Y-11778150D01*
X7034586Y-11711484D02*
X7025062Y-11721008D01*
X7025062Y-11721008D02*
X7034586Y-11730531D01*
X7034586Y-11730531D02*
X7044110Y-11721008D01*
X7044110Y-11721008D02*
X7034586Y-11711484D01*
X7034586Y-11711484D02*
X7034586Y-11730531D01*
X7158396Y-11911484D02*
X7139348Y-11901960D01*
X7139348Y-11901960D02*
X7129824Y-11882912D01*
X7129824Y-11882912D02*
X7129824Y-11711484D01*
X7263158Y-11911484D02*
X7244110Y-11901960D01*
X7244110Y-11901960D02*
X7234586Y-11882912D01*
X7234586Y-11882912D02*
X7234586Y-11711484D01*
X7491729Y-11911484D02*
X7491729Y-11711484D01*
X7491729Y-11711484D02*
X7558396Y-11854341D01*
X7558396Y-11854341D02*
X7625062Y-11711484D01*
X7625062Y-11711484D02*
X7625062Y-11911484D01*
X7806015Y-11911484D02*
X7806015Y-11806722D01*
X7806015Y-11806722D02*
X7796491Y-11787674D01*
X7796491Y-11787674D02*
X7777443Y-11778150D01*
X7777443Y-11778150D02*
X7739348Y-11778150D01*
X7739348Y-11778150D02*
X7720301Y-11787674D01*
X7806015Y-11901960D02*
X7786967Y-11911484D01*
X7786967Y-11911484D02*
X7739348Y-11911484D01*
X7739348Y-11911484D02*
X7720301Y-11901960D01*
X7720301Y-11901960D02*
X7710777Y-11882912D01*
X7710777Y-11882912D02*
X7710777Y-11863865D01*
X7710777Y-11863865D02*
X7720301Y-11844817D01*
X7720301Y-11844817D02*
X7739348Y-11835293D01*
X7739348Y-11835293D02*
X7786967Y-11835293D01*
X7786967Y-11835293D02*
X7806015Y-11825769D01*
X7901253Y-11778150D02*
X7901253Y-11978150D01*
X7901253Y-11787674D02*
X7920301Y-11778150D01*
X7920301Y-11778150D02*
X7958396Y-11778150D01*
X7958396Y-11778150D02*
X7977443Y-11787674D01*
X7977443Y-11787674D02*
X7986967Y-11797198D01*
X7986967Y-11797198D02*
X7996491Y-11816246D01*
X7996491Y-11816246D02*
X7996491Y-11873388D01*
X7996491Y-11873388D02*
X7986967Y-11892436D01*
X7986967Y-11892436D02*
X7977443Y-11901960D01*
X7977443Y-11901960D02*
X7958396Y-11911484D01*
X7958396Y-11911484D02*
X7920301Y-11911484D01*
X7920301Y-11911484D02*
X7901253Y-11901960D01*
X8082205Y-11892436D02*
X8091729Y-11901960D01*
X8091729Y-11901960D02*
X8082205Y-11911484D01*
X8082205Y-11911484D02*
X8072682Y-11901960D01*
X8072682Y-11901960D02*
X8082205Y-11892436D01*
X8082205Y-11892436D02*
X8082205Y-11911484D01*
X8082205Y-11787674D02*
X8091729Y-11797198D01*
X8091729Y-11797198D02*
X8082205Y-11806722D01*
X8082205Y-11806722D02*
X8072682Y-11797198D01*
X8072682Y-11797198D02*
X8082205Y-11787674D01*
X8082205Y-11787674D02*
X8082205Y-11806722D01*
M02*
